<svg xmlns="http://www.w3.org/2000/svg" viewBox="0 0 2049 1152"><defs><style>.cls-1{fill:#fff;}.cls-2,.cls-3,.cls-4,.cls-6{fill:none;}.cls-2,.cls-3,.cls-4,.cls-5,.cls-6{stroke:#000;}.cls-2,.cls-3,.cls-5,.cls-6{stroke-miterlimit:10;}.cls-2,.cls-3,.cls-4,.cls-5{stroke-width:0.5px;}.cls-3,.cls-4{stroke-linecap:round;}.cls-4{stroke-linejoin:round;}.cls-5{fill:#e6e6e6;}.cls-6{stroke-width:3px;}</style></defs><g id="레이어_6" data-name="레이어 6"><path class="cls-1" d="M1265.55,462.06c-115.36-40.3-240.38-59.79-483.65,48.89C599.51,592.44,538.54,617.89,453,637c-38.94,8.69-91.19,38-73.77,106.47,4.43,17.44,16.39,60.85,16.39,60.85L1339.33,813S1436.92,521.93,1265.55,462.06Z"/><path class="cls-2" d="M633.71,736.94s30.84-4.25,40-5.43c101.44-13,256.91-42,311.5-44.54,95.29-4.35,196.74-19.56,375,23.9"/><path class="cls-2" d="M899.11,466.41s-19.47,38-18.84,88.5c.86,68,8.87,87.88,18.84,126.62,12.29,47.81,14.34,71.71,22.8,126.8"/><path class="cls-2" d="M400.6,663.06s125.52-28.25,203.64-55.41C743.77,559.13,976,480.53,1106.86,480.53c94.53,0,139.61,4.35,234.39,44.05"/><path class="cls-2" d="M376.78,716.84S664.07,654.37,794.2,619.6s277.65-53.83,424.22-41.28c38.13,3.26,46.12,4,147.56,28.64"/><path class="cls-2" d="M378.18,742.38s293.06-45.64,354.54-60.85,325.21-63,434.85-53.24,153,30.43,198.79,39.12"/><path class="cls-2" d="M384.47,761.63s89.75-8.69,120.45-13c9.43-1.3,22.36-10.53,38-12.71,30.7-4.25,44.65-2.28,44.65-2.28"/><path class="cls-2" d="M756.36,523.33s-35.55,78.89,9.54,154.94c26.65,45,27.28,127.42,27.28,127.42"/><path class="cls-2" d="M710.56,544.63S686,624,718.76,675c19.61,30.54,24.59,51.07,32.59,131.08"/><path class="cls-2" d="M798.92,504.75s-35.29,94.33,5.91,158.31c28.7,44.55,31.38,144.27,31.38,144.27"/><path class="cls-2" d="M844.8,486s-26.64,82.58.52,159.72c27.84,79.05,30.55,162.65,30.55,162.65"/><path class="cls-2" d="M944.92,451.86s-43.77,98.21-7.15,205c0,0,16.67,72.51,22.39,151.54"/><path class="cls-2" d="M667.9,562.47s-20.27,68.7,13.31,130.92c13.32,24.7,23.21,41.38,29.54,112.7"/><path class="cls-2" d="M623.33,582.12s-17.28,64.65,18.58,117.32c13.61,20,22.54,50.54,30.52,106.18"/><path class="cls-3" d="M580.43,599s-14.23,49.15,7.17,97.78c7.18,16.3,16.18,19,26.64,21.73,12.3,3.26,20.5,19.56,20.5,19.56"/><path class="cls-4" d="M542.52,613.08s-5.29,34.57,3.07,77.15c5.12,26.07,26.64,32.59,44.06,32.59,24.62,0,36.89,4.35,36.89,4.35"/><path class="cls-2" d="M437.35,641.88S418.57,686,443.5,733c21.14,39.82,21.14,48.51,25,70.94"/><path class="cls-2" d="M507.78,624.07s-7.28,44.43,1.92,72.67c5.11,15.67,13.37,29.76,29.8,29.76,7.17,0,11.73,1,23,1,12.3,0,34.68,9.47,35.35,9.44"/><path class="cls-2" d="M476.28,633.18s-16.76,56,10.9,105.41c6.48,11.57,10.25,30.51,17.88,65.94"/><path class="cls-2" d="M998.79,440.39s-51.52,95.55-26.93,182.47c26.72,94.45,32.82,184.47,32.82,184.47"/><path class="cls-2" d="M1046.88,431.9s-43.26,104-26.86,187.7,26.86,188.77,26.86,188.77"/><path class="cls-2" d="M1088.55,430.24s-33.69,92.66-25.5,177.41,25.5,200.72,25.5,200.72"/><path class="cls-2" d="M1128.34,429.9s-22.25,106-15.08,183.18,17.13,197.51,17.13,197.51"/><path class="cls-2" d="M401.69,661.79s-14.92,42.56,1.47,76.24c5.67,11.65,14.35,33.68,22.49,66.49"/><path class="cls-2" d="M390.65,780.05c3.72-.45,90.19-5.1,119.74-9.25,9.61-1.35,20.12-8.37,38.68-10.2s91.36-8,91.36-8"/><path class="cls-2" d="M395,800s95.3-1.08,121.46-5.36c9.65-1.57,19-8.07,33.27-9.85,17.42-2.17,95.27-4.38,95.27-4.38"/><path class="cls-2" d="M646.82,791.25s516.65-39.09,698.92,0"/><path class="cls-2" d="M1172.54,436.89s-5,149-9.07,231.61c-1.77,35.7.87,74,4.53,142.92"/><path class="cls-2" d="M380.83,689.74s155.68-29.28,218-51.67c66.61-23.9,327.9-116.25,519.52-113,186.94,3.18,240.06,44.34,240.06,44.34"/><path class="cls-2" d="M739,530.45s307.71-140.1,537.66-64"/><path class="cls-2" d="M641.91,768.45s236.19-25,379.13-38c179.32-16.3,333,25,333,25"/><path class="cls-2" d="M1254.85,459.62c1.49,7.25,15.5,88.54-6.15,215.39-5.75,33.68-7.92,63.73-6.61,136.72"/><path class="cls-2" d="M1295.5,477.35s30.9,109.66-.87,206.36c-10,30.32-12.05,59.75-14.22,128.75"/><path class="cls-2" d="M1339,522.24s26.29,97.36-7.52,184.28c-7.71,19.83-15.37,66.28-16.83,105.94"/><path class="cls-2" d="M1212.65,446.24s9.23,121.21-7.17,225.51c-5.29,33.72-6.68,72.43-4.36,140"/><path class="cls-5" d="M550.83,804.33s-10.47-34.54-12.77-58.27S559,724.48,559,724.48h24.19c11,0,17.59-1.08,26.38,0,3.57.44,19.79-1.08,25.29,12.95,5.74,14.66,7.05,12.94,14.05,68.19"/></g><g id="레이어_7" data-name="레이어 7"><path class="cls-6" d="M1265.55,462.06c-115.36-40.3-240.38-59.79-483.65,48.89C599.51,592.44,538.54,617.89,453,637c-38.94,8.69-91.19,38-73.77,106.47,4.43,17.44,16.39,60.85,16.39,60.85L1339.33,813S1436.92,521.93,1265.55,462.06Z"/></g></svg>