<svg id="레이어_9" data-name="레이어 9" xmlns="http://www.w3.org/2000/svg" viewBox="0 0 2049 1152"><defs><style>.cls-1{fill:#fff;stroke-width:2px;}.cls-1,.cls-2,.cls-3,.cls-4{stroke:#000;stroke-miterlimit:10;}.cls-2,.cls-3,.cls-4{fill:none;stroke-width:0.5px;}.cls-2{stroke-dasharray:3 3;}.cls-4{stroke-dasharray:5.99 5.99;}</style></defs><path class="cls-1" d="M2190.23,644.6H-315v47.86h76.74c-9.09,0-12.28,12.07-4.38,16.57l126.69,72a8.83,8.83,0,0,0,8.76,0L8.48,715.29l115.67,65.78a8.83,8.83,0,0,0,8.76,0l115.67-65.78,115.67,65.78a8.83,8.83,0,0,0,8.76,0l115.67-65.78,115.67,65.78a8.83,8.83,0,0,0,8.76,0l115.67-65.78,115.67,65.78a8.83,8.83,0,0,0,8.76,0l117.6-66.87,117.6,66.87a8.83,8.83,0,0,0,8.76,0l115.67-65.78,115.67,65.78a8.83,8.83,0,0,0,8.76,0l115.67-65.78,115.67,65.78a8.83,8.83,0,0,0,8.76,0L1693,715.29l115.67,65.78a8.83,8.83,0,0,0,8.76,0l115.67-65.78,115.67,65.78a8.83,8.83,0,0,0,8.76,0l126.69-72c7.91-4.5,4.72-16.56-4.37-16.57h10.34ZM-11.88,710.2l-95.19,51.62a9.45,9.45,0,0,1-9,0l-95.19-51.62c-8.61-4.67-5.29-17.74,4.5-17.74H-16.38A9.29,9.29,0,0,1-7,700.82a9.14,9.14,0,0,0,.06,1.81A9.11,9.11,0,0,1-11.88,710.2Zm240.1,0L133,761.82a9.45,9.45,0,0,1-9,0L28.84,710.2a9.09,9.09,0,0,1-4.93-7.57,9.13,9.13,0,0,0,.05-1.81,9.31,9.31,0,0,1,9.38-8.36H223.72a9.31,9.31,0,0,1,9.38,8.36,9.13,9.13,0,0,0,.05,1.81A9.09,9.09,0,0,1,228.22,710.2Zm240.1,0-95.19,51.62a9.45,9.45,0,0,1-9,0L268.94,710.2a9.09,9.09,0,0,1-4.93-7.57,9.13,9.13,0,0,0,.05-1.81,9.31,9.31,0,0,1,9.38-8.36H463.82a9.31,9.31,0,0,1,9.38,8.36,9.13,9.13,0,0,0,.05,1.81A9.09,9.09,0,0,1,468.32,710.2Zm240.1,0-95.19,51.62a9.45,9.45,0,0,1-9,0L509,710.2a9.11,9.11,0,0,1-4.93-7.57,9.14,9.14,0,0,0,.06-1.81,9.29,9.29,0,0,1,9.37-8.36H703.92a9.31,9.31,0,0,1,9.38,8.36,9.13,9.13,0,0,0,.05,1.81A9.09,9.09,0,0,1,708.42,710.2Zm240.1,0-95.19,51.62a9.45,9.45,0,0,1-9,0L749.14,710.2a9.13,9.13,0,0,1-4.93-7.57,9.14,9.14,0,0,0,.06-1.81,9.3,9.3,0,0,1,9.37-8.36H944C953.81,692.47,957.13,705.54,948.52,710.2Zm244,0-95.19,51.62a9.45,9.45,0,0,1-9,0L993.1,710.2c-8.61-4.67-5.29-17.74,4.5-17.74H1188a9.31,9.31,0,0,1,9.38,8.36,9.13,9.13,0,0,0,.05,1.81A9.09,9.09,0,0,1,1192.48,710.2Zm240.1,0-95.19,51.62a9.45,9.45,0,0,1-9,0L1233.2,710.2a9.13,9.13,0,0,1-4.93-7.57,9.14,9.14,0,0,0,.06-1.81,9.29,9.29,0,0,1,9.37-8.36h190.38a9.31,9.31,0,0,1,9.38,8.36,8.44,8.44,0,0,0,.06,1.81A9.12,9.12,0,0,1,1432.58,710.2Zm240.1,0-95.19,51.62a9.45,9.45,0,0,1-9,0L1473.3,710.2a9.13,9.13,0,0,1-4.93-7.57,9.14,9.14,0,0,0,.06-1.81,9.29,9.29,0,0,1,9.37-8.36h190.38a9.3,9.3,0,0,1,9.38,8.36,8.44,8.44,0,0,0,.06,1.81A9.12,9.12,0,0,1,1672.68,710.2Zm240.1,0-95.19,51.62a9.45,9.45,0,0,1-9,0L1713.4,710.2a9.13,9.13,0,0,1-4.93-7.57,9.14,9.14,0,0,0,.06-1.81,9.29,9.29,0,0,1,9.37-8.36h190.39a9.3,9.3,0,0,1,9.37,8.36,9.14,9.14,0,0,0,.06,1.81A9.12,9.12,0,0,1,1912.78,710.2Zm240.1,0-95.19,51.62a9.45,9.45,0,0,1-9,0L1953.5,710.2a9.13,9.13,0,0,1-4.93-7.57,9.14,9.14,0,0,0,.06-1.81,9.3,9.3,0,0,1,9.37-8.36h190.39C2158.18,692.47,2161.49,705.54,2152.88,710.2Z"/><line class="cls-2" x1="2186.12" y1="668.53" x2="-311.59" y2="668.53"/><line class="cls-3" x1="2190.61" y1="692.46" x2="-314.59" y2="692.46"/><line class="cls-4" x1="2181.62" y1="673.93" x2="-308.59" y2="673.93"/><line class="cls-3" x1="16.2" y1="644.98" x2="16.2" y2="692.08"/><line class="cls-3" x1="92.63" y1="644.98" x2="92.63" y2="692.08"/><line class="cls-3" x1="169.06" y1="644.98" x2="169.06" y2="692.08"/><line class="cls-3" x1="245.49" y1="644.98" x2="245.49" y2="692.08"/><line class="cls-3" x1="321.92" y1="644.98" x2="321.92" y2="692.08"/><line class="cls-3" x1="398.35" y1="644.98" x2="398.35" y2="692.08"/><line class="cls-3" x1="474.78" y1="644.98" x2="474.78" y2="692.08"/><line class="cls-3" x1="551.21" y1="644.98" x2="551.21" y2="692.08"/><line class="cls-3" x1="627.65" y1="644.98" x2="627.65" y2="692.08"/><line class="cls-3" x1="704.08" y1="644.98" x2="704.08" y2="692.08"/><line class="cls-3" x1="780.51" y1="644.98" x2="780.51" y2="692.08"/><line class="cls-3" x1="856.94" y1="644.98" x2="856.94" y2="692.08"/><line class="cls-3" x1="933.37" y1="644.98" x2="933.37" y2="692.08"/><line class="cls-3" x1="1009.8" y1="644.98" x2="1009.8" y2="692.08"/><line class="cls-3" x1="1086.23" y1="644.98" x2="1086.23" y2="692.08"/><line class="cls-3" x1="1162.66" y1="644.98" x2="1162.66" y2="692.08"/><line class="cls-3" x1="1239.09" y1="644.98" x2="1239.09" y2="692.08"/><line class="cls-3" x1="1315.52" y1="644.98" x2="1315.52" y2="692.08"/><line class="cls-3" x1="1391.95" y1="644.98" x2="1391.95" y2="692.08"/><line class="cls-3" x1="1468.38" y1="644.98" x2="1468.38" y2="692.08"/><line class="cls-3" x1="1544.81" y1="644.98" x2="1544.81" y2="692.08"/><line class="cls-3" x1="1621.24" y1="644.98" x2="1621.24" y2="692.08"/><line class="cls-3" x1="1697.68" y1="644.98" x2="1697.68" y2="692.08"/><line class="cls-3" x1="1774.11" y1="644.98" x2="1774.11" y2="692.08"/><line class="cls-3" x1="1850.54" y1="644.98" x2="1850.54" y2="692.08"/><line class="cls-3" x1="1926.97" y1="644.98" x2="1926.97" y2="692.08"/><line class="cls-3" x1="2003.4" y1="644.98" x2="2003.4" y2="692.08"/></svg>