<svg id="레이어_13" data-name="레이어 13" xmlns="http://www.w3.org/2000/svg" viewBox="0 0 2049 1152"><defs><style>.cls-1{fill:#fff;}.cls-1,.cls-2,.cls-3{stroke:#000;stroke-miterlimit:10;}.cls-1,.cls-3{stroke-width:2px;}.cls-2,.cls-3{fill:none;}.cls-2{stroke-width:0.5px;}</style></defs><path class="cls-1" d="M792.1,584.47c301.62-161.06,280.41-363.7,242.16-418.31C859.59-83.14,560-38,560-38L-205-5.49V1159c234.88-2.16,657-125.28,709-146.84,16.51-6.85,10-25.68,10-82.16.3,0-.39,0-.09.07C506.3,756.16,545.94,715.91,792.1,584.47Z"/><path class="cls-2" d="M-226.5,56.62s845,280.36,1209,379"/><path class="cls-2" d="M976.5,97.5s77.42,315.1-268,470.51c-89.4,40.22-235,144.79-234,319.36V1022"/><path class="cls-2" d="M890.5,31.5s50,339.37-238,490.32-234,518.66-234,518.66"/><path class="cls-2" d="M791.5-13.5s60,318.65-269,552.78c-95.29,67.81-171,224.88-171,446.69l2,72"/><path class="cls-2" d="M688.5-37.5c-7,9.24,16.83,344.66-258,559.32-121,94.54-161,166.49-161,558.76"/><path class="cls-2" d="M573.5-39.5s1.33,282.7-235,525.38c-112.85,115.88-156,155.22-156,615.26"/><path class="cls-2" d="M439.5-33.5s1.33,276.7-235,519.38C91.65,601.76,48.5,668.46,48.5,1128.5"/><path class="cls-2" d="M307.5-25.5s5.33,268.7-231,511.38c-112.85,115.88-156,204.58-156,664.62"/><path class="cls-2" d="M181.5-25.5s5.33,268.7-231,511.38c-112.85,115.88-156,204.58-156,664.62"/><path class="cls-2" d="M-204.5,186.68S415.5,383.89,915.5,503"/><path class="cls-2" d="M-204.5,305.15S471.5,474.58,823.5,568"/><path class="cls-2" d="M114.5-16.5s560.1,168.6,940.11,292"/><path class="cls-2" d="M-204.5,428.37c8,2.06,564,110.91,932,191"/><path class="cls-2" d="M-204.5,552.62s653,113,815,138.63"/><path class="cls-2" d="M-204.5,664.56s412,72.9,742,106.79"/><path class="cls-2" d="M-204.5,796c9,2,387,53.39,718,65.72"/><path class="cls-2" d="M-204.5,938.73s479,21.57,718-8.21"/><path class="cls-2" d="M-204.5,1052.72s316,30.8,718-51.35"/><path class="cls-3" d="M513.91,930.07c-7.61-173.91,31.74-214.71,278.19-345.6C1098,422,1069.92,216.4,1034.26,166.16,855.36-85.86,560-38,560-38L-205-5.49V1159c234.88-2.16,657-125.28,709-146.84"/><path class="cls-2" d="M1032.76,355.41S-94.23,31.51-204.5-5.5"/><path class="cls-2" d="M1043.61,186.68s-445.9-156.86-758-213"/><path class="cls-2" d="M941.35,67S760.49-3.25,463-33.88"/></svg>