<svg id="레이어_12" data-name="레이어 12" xmlns="http://www.w3.org/2000/svg" viewBox="0 0 2049 1152"><defs><style>.cls-1{fill:#fff;}.cls-1,.cls-2,.cls-3{stroke:#000;stroke-miterlimit:10;}.cls-1,.cls-3{stroke-width:2px;}.cls-2,.cls-3{fill:none;}.cls-2{stroke-width:0.5px;}</style></defs><path class="cls-1" d="M1413.5,376s0-25-195-163c-78-55.21-220.21-122.26-362.74-182.84,22.17,61.23,59.46,250.51-242.16,407.35-246.16,128-285.8,167.2-278.19,336.55C672,796.94,949.5,765,949.5,765c-2-69,11-99,50-159s116-56,116-56,210-13,280-62S1413.5,376,1413.5,376Z"/><path class="cls-2" d="M1058.5,122s157,263-239,416c-120.56,46.58-217.5,76.5-217,244"/><path class="cls-2" d="M1143.5,166s117,223-202,361C661.28,648.22,687,686.5,670.5,782"/><path class="cls-2" d="M1222.52,215s86.11,188-134.23,291C858.85,613.25,769,643.5,741,726.5c-4.08,12.08-5.5,53.5-5.5,53.5"/><path class="cls-2" d="M1288.5,263s94,179-162,258c0,0-307,94-307,228v26"/><path class="cls-2" d="M1002.5,602.5C939.29,636,895.44,676.34,893.5,733l-3,38"/><path class="cls-2" d="M1351.5,313s59,154-96,199c-32.46,9.42-80.69,19.76-133,37.5"/><path class="cls-2" d="M987.5,89c1.26,2.19,139,239.5-179,388.5-246.12,115.32-265,179-275,304.5"/><path class="cls-2" d="M858.5,192.5c0,101-104.94,216.19-269,286.5-88,37.72-210.5,126.5-210.59,299.45"/><path class="cls-2" d="M924.24,59.33S1036.5,343,686.5,493c-88,37.72-224.5,93.5-224.59,285.45"/><path class="cls-2" d="M828.5,259.5c378,85,603.5,187,603.5,187"/><path class="cls-2" d="M723,367.5s473.5,130,592.5,153"/><path class="cls-2" d="M639,422.5s288.5,83,557,120"/><path class="cls-2" d="M540,476.5c284.33,60.86,284,60.76,512,85.36"/><path class="cls-2" d="M433,540.5s313.52,53,570.5,59"/><path class="cls-2" d="M368,605.5s332,52,602,51"/><path class="cls-2" d="M338,686.5s387,43,615,21"/><path class="cls-2" d="M1254.5,237.5c-19.22-14.51-217-71-390.73-84.66"/><path class="cls-2" d="M1119.5,154.5s-56-30-250-58"/><path class="cls-2" d="M912.5,54.5s-32-6-50-5"/><path class="cls-2" d="M783.5,312.5c5-4,502,133,607,179"/><path class="cls-2" d="M852.5,207.5c13,1,387,63,555,159"/><path class="cls-3" d="M1413.5,376s0-25-195-163c-78-55.21-220.21-122.26-362.74-182.84,22.17,61.23,59.46,250.51-242.16,407.35-246.16,128-285.8,167.2-278.19,336.55C672,796.94,949.5,765,949.5,765c-2-69,11-99,50-159s116-56,116-56,210-13,280-62S1413.5,376,1413.5,376Z"/></svg>