<svg xmlns="http://www.w3.org/2000/svg" viewBox="0 0 816.23 974.09"><defs><style>.cls-1,.cls-3,.cls-4,.cls-5{fill:#fff;}.cls-1,.cls-2,.cls-3,.cls-4,.cls-5{stroke:#000;stroke-miterlimit:10;}.cls-1{stroke-width:3px;}.cls-2{fill:none;}.cls-2,.cls-5{stroke-width:0.5px;}.cls-3{stroke-width:2px;}.cls-4{stroke-width:0.75px;}.cls-5{stroke-linecap:round;}</style></defs><g id="레이어_20" data-name="레이어 20"><path class="cls-1" d="M-1.63,918.5c162.22,0,332.36-20.58,362.48-56,23-27,29.43-134,157.2-384S573.32.5,573.32.5H-1.63Z" transform="translate(8.23 1)"/></g><g id="레이어_18" data-name="레이어 18"><path class="cls-2" d="M210.75.5c17,0,249.76,358,296.49,498" transform="translate(8.23 1)"/><path class="cls-2" d="M328,.5s179.25,353,200.48,453" transform="translate(8.23 1)"/><path class="cls-2" d="M426.53.5s117.24,306,126.58,395" transform="translate(8.23 1)"/><path class="cls-2" d="M576.05,322.5c-11-113-62.87-312-67.11-322" transform="translate(8.23 1)"/><path class="cls-2" d="M87.57.5s310.08,345,401.83,535" transform="translate(8.23 1)"/><path class="cls-2" d="M-1.63,72.5c17.84,7,406.92,392,474.89,498" transform="translate(8.23 1)"/><path class="cls-2" d="M-.78,249.5c6.8,3,349.16,266,450.25,376" transform="translate(8.23 1)"/><path class="cls-2" d="M-1.63,409.5s258.26,138,435.81,256" transform="translate(8.23 1)"/><line class="cls-2" x1="7.45" y1="556.5" x2="414.37" y2="703.5"/><path class="cls-2" d="M-.78,673.5s275.25,63,373.79,72" transform="translate(8.23 1)"/><path class="cls-2" d="M-.78,783.5s283.74,12,340.66,12" transform="translate(8.23 1)"/><path class="cls-2" d="M-.78,884.5s256.87-21,322.28-33" transform="translate(8.23 1)"/></g><g id="레이어_19" data-name="레이어 19"><path class="cls-2" d="M484.06,0S183,204.43-2,550.25" transform="translate(8.23 1)"/><path class="cls-2" d="M350.47,4S92.37,241.5-8,391" transform="translate(8.23 1)"/><path class="cls-2" d="M64.63-.5s-56.91,54-66.26,73" transform="translate(8.23 1)"/><path class="cls-2" d="M589.64,88.5S240.22,320.69-8,880" transform="translate(8.23 1)"/><path class="cls-2" d="M596,161S246.35,445.06,74,918.5" transform="translate(8.23 1)"/><path class="cls-2" d="M590.06,221.86S274.52,552.67,150.44,912.5" transform="translate(8.23 1)"/><path class="cls-2" d="M579.5,303.5s-240.31,301-355,601" transform="translate(8.23 1)"/><path class="cls-2" d="M545.5,413.5s-143,177-252,478" transform="translate(8.23 1)"/><path class="cls-2" d="M193.76.5c-4.25,0-120.63,115-194.54,219" transform="translate(8.23 1)"/><path class="cls-2" d="M576.05,4.5S94.37,387.5-2.48,725.5" transform="translate(8.23 1)"/></g><g id="레이어_16" data-name="레이어 16"><polygon class="cls-3" points="532.26 652.44 436.9 652.44 462.94 624.04 532.26 624.04 532.26 652.44"/><line class="cls-4" x1="442.58" y1="630.12" x2="532.51" y2="630.12"/><polygon class="cls-1" points="738.54 935.41 356.1 935.41 377.48 770.09 705.92 770.09 738.54 935.41"/><rect class="cls-3" x="436.9" y="652.44" width="136.73" height="58.83"/><rect class="cls-3" x="417.83" y="711.26" width="211.3" height="58.83"/><line class="cls-4" x1="356.1" y1="918.17" x2="738.54" y2="918.17"/><line class="cls-4" x1="356.35" y1="899.04" x2="738.79" y2="899.04"/><line class="cls-4" x1="356.6" y1="879.92" x2="739.04" y2="879.92"/><line class="cls-4" x1="356.85" y1="860.79" x2="739.29" y2="860.79"/><line class="cls-4" x1="357.1" y1="841.66" x2="739.54" y2="841.66"/><line class="cls-4" x1="357.35" y1="822.54" x2="739.79" y2="822.54"/><line class="cls-4" x1="357.6" y1="803.41" x2="740.05" y2="803.41"/><line class="cls-4" x1="362.87" y1="784.29" x2="687.09" y2="784.29"/><line class="cls-4" x1="418.08" y1="759.95" x2="629.38" y2="759.95"/><line class="cls-4" x1="418.08" y1="750.06" x2="629.38" y2="750.06"/><line class="cls-4" x1="418.08" y1="740.17" x2="629.38" y2="740.17"/><line class="cls-4" x1="418.08" y1="730.28" x2="629.38" y2="730.28"/><line class="cls-4" x1="418.08" y1="720.39" x2="629.38" y2="720.39"/><line class="cls-4" x1="436.9" y1="701.12" x2="566.89" y2="701.12"/><line class="cls-4" x1="437.15" y1="691.23" x2="567.14" y2="691.23"/><line class="cls-4" x1="437.15" y1="661.57" x2="567.14" y2="661.57"/><line class="cls-4" x1="437.15" y1="671.45" x2="567.14" y2="671.45"/><line class="cls-4" x1="437.15" y1="681.34" x2="567.14" y2="681.34"/><line class="cls-4" x1="436.9" y1="646.35" x2="532.26" y2="646.35"/><line class="cls-4" x1="437.15" y1="638.24" x2="532.51" y2="638.24"/><path class="cls-1" d="M461.59,598.7c-32.67,27.62-92.1,140.74-98.58,154.54-.34.73-2.44,5.47-2.85,6.11-2.72,4.24-13.87,25.46-26.9,61C320,856.4,284,945.06,284,945.06s-12,25.35,2.86,26.37,73.62-36,73.62-36,82.81-237.33,112.94-312.89C475.62,617,477.18,585.51,461.59,598.7Z" transform="translate(8.23 1)"/><path class="cls-1" d="M509.86,595.66c3,0,10.14,5.62,10.69,6.08C561.11,635,671.09,739.68,671.09,739.68c50.25,43.62,50.52,44.08,64.78,68,12.38,20.71,54.15,109.26,69.78,154.74,2.47,7.16-.5,12.17-8.2,7.25l-68-33.31a60.27,60.27,0,0,1-6.44-5.45L509.27,630.14c-2.27-3.08-4-5.55-4.75-8.11C502.73,615.94,501.07,595.66,509.86,595.66Z" transform="translate(8.23 1)"/></g><g id="레이어_17" data-name="레이어 17"><path class="cls-5" d="M308.34,964.84,353.73,817.7s9-53.68,116.17-222" transform="translate(8.23 1)"/><path class="cls-2" d="M507.81,597.18c4,8.11,153.68,148.48,203.18,203.9-3.83-4.28,38.25,45.47,69.07,157.23" transform="translate(8.23 1)"/></g></svg>