<svg xmlns="http://www.w3.org/2000/svg" viewBox="0 0 952.24 369.71"><defs><style>.cls-1{fill:#fff;}.cls-2,.cls-3,.cls-4,.cls-6{fill:none;}.cls-2,.cls-3,.cls-4,.cls-5,.cls-6{stroke:#000;}.cls-2,.cls-3,.cls-5,.cls-6{stroke-miterlimit:10;}.cls-2,.cls-3,.cls-4,.cls-5{stroke-width:0.5px;}.cls-3,.cls-4{stroke-linecap:round;}.cls-4{stroke-linejoin:round;}.cls-5{fill:#e6e6e6;}.cls-6{stroke-width:3px;}</style></defs><g id="레이어_6" data-name="레이어 6"><path class="cls-1" d="M1362.85,479.81c-110.47-38.59-230.19-57.26-463.15,46.82-174.67,78-233.06,102.41-315,120.7-37.29,8.32-87.33,36.41-70.65,102,4.25,16.7,15.7,58.27,15.7,58.27l903.74,8.32S1527,537.15,1362.85,479.81Z" transform="translate(-509.26 -447.69)"/><path class="cls-2" d="M757.78,743.05s29.53-4.08,38.27-5.2c97.15-12.49,246-40.28,298.31-42.66,91.25-4.16,188.4-18.73,359.14,22.89" transform="translate(-509.26 -447.69)"/><path class="cls-2" d="M1011.93,484s-18.64,36.41-18,84.75c.82,65.07,8.49,84.15,18,121.26,11.78,45.78,13.74,68.67,21.84,121.42" transform="translate(-509.26 -447.69)"/><path class="cls-2" d="M534.55,672.3s120.2-27,195-53.06c133.61-46.47,356-121.74,481.32-121.74,90.53,0,133.7,4.16,224.47,42.18" transform="translate(-509.26 -447.69)"/><path class="cls-2" d="M511.74,723.8S786.85,664,911.47,630.68s265.89-51.55,406.24-39.54c36.52,3.13,44.17,3.88,141.31,27.43" transform="translate(-509.26 -447.69)"/><path class="cls-2" d="M513.08,748.25S793.72,704.55,852.59,690,1164,629.64,1269,639s146.56,29.14,190.37,37.46" transform="translate(-509.26 -447.69)"/><path class="cls-2" d="M519.1,766.69s85.95-8.32,115.35-12.4c9-1.25,21.41-10.09,36.42-12.17,29.4-4.07,42.76-2.19,42.76-2.19" transform="translate(-509.26 -447.69)"/><path class="cls-2" d="M875.23,538.49s-34,75.54,9.14,148.38c25.52,43,26.12,122,26.12,122" transform="translate(-509.26 -447.69)"/><path class="cls-2" d="M831.38,558.89s-23.55,76,7.85,124.85C858,713,862.78,732.65,870.44,809.27" transform="translate(-509.26 -447.69)"/><path class="cls-2" d="M916,520.69S882.19,611,921.65,672.3C949.13,715,951.7,810.45,951.7,810.45" transform="translate(-509.26 -447.69)"/><path class="cls-2" d="M959.92,502.7s-25.51,79.08.51,153c26.66,75.71,29.25,155.76,29.25,155.76" transform="translate(-509.26 -447.69)"/><path class="cls-2" d="M1055.8,470.05s-41.91,94-6.85,196.28c0,0,16,69.44,21.45,145.12" transform="translate(-509.26 -447.69)"/><path class="cls-2" d="M790.52,576s-19.41,65.79,12.74,125.37C816,725,825.49,741,831.56,809.27" transform="translate(-509.26 -447.69)"/><path class="cls-2" d="M747.84,594.79s-16.55,61.9,17.79,112.34c13,19.15,21.59,48.41,29.23,101.69" transform="translate(-509.26 -447.69)"/><path class="cls-3" d="M706.76,610.91s-13.63,47.07,6.87,93.64c6.87,15.61,15.49,18.16,25.51,20.81,11.77,3.12,19.62,18.73,19.62,18.73" transform="translate(-509.26 -447.69)"/><path class="cls-4" d="M670.45,624.44s-5.07,33.1,2.94,73.87c4.91,25,25.52,31.22,42.2,31.22,23.57,0,35.32,4.16,35.32,4.16" transform="translate(-509.26 -447.69)"/><path class="cls-2" d="M569.74,652s-18,42.29,5.89,87.25c20.24,38.13,20.24,46.45,23.92,67.93" transform="translate(-509.26 -447.69)"/><path class="cls-2" d="M637.19,635s-7,42.55,1.84,69.59c4.88,15,12.8,28.5,28.53,28.5,6.87,0,11.23,1,22,1,11.77,0,33.21,9.06,33.85,9" transform="translate(-509.26 -447.69)"/><path class="cls-2" d="M607,643.69s-16,53.58,10.44,100.93c6.2,11.08,9.82,29.22,17.12,63.15" transform="translate(-509.26 -447.69)"/><path class="cls-2" d="M1107.39,459.06s-49.34,91.51-25.79,174.74c25.59,90.45,31.43,176.65,31.43,176.65" transform="translate(-509.26 -447.69)"/><path class="cls-2" d="M1153.44,450.93s-41.42,99.64-25.72,179.75,25.72,180.77,25.72,180.77" transform="translate(-509.26 -447.69)"/><path class="cls-2" d="M1193.35,449.34s-32.27,88.74-24.42,169.9,24.42,192.21,24.42,192.21" transform="translate(-509.26 -447.69)"/><path class="cls-2" d="M1231.46,449S1210.15,550.57,1217,624.44s16.41,189.13,16.41,189.13" transform="translate(-509.26 -447.69)"/><path class="cls-2" d="M535.59,671.09s-14.29,40.75,1.41,73c5.43,11.16,13.74,32.26,21.53,63.67" transform="translate(-509.26 -447.69)"/><path class="cls-2" d="M525,784.33c3.56-.43,86.37-4.88,114.66-8.85,9.21-1.3,19.27-8,37.05-9.77s87.49-7.65,87.49-7.65" transform="translate(-509.26 -447.69)"/><path class="cls-2" d="M529.15,803.4s91.26-1,116.31-5.13c9.24-1.51,18.18-7.73,31.86-9.44,16.68-2.08,91.23-4.19,91.23-4.19" transform="translate(-509.26 -447.69)"/><path class="cls-2" d="M770.34,795.06s494.76-37.44,669.3,0" transform="translate(-509.26 -447.69)"/><path class="cls-2" d="M1273.78,455.71S1269,598.43,1265.1,677.5c-1.7,34.19.83,70.85,4.34,136.87" transform="translate(-509.26 -447.69)"/><path class="cls-2" d="M515.62,697.85s149.08-28.05,208.8-49.48c63.78-22.89,314-111.33,497.5-108.21,179,3.05,229.89,42.46,229.89,42.46" transform="translate(-509.26 -447.69)"/><path class="cls-2" d="M858.56,545.31S1153.23,411.14,1373.44,484" transform="translate(-509.26 -447.69)"/><path class="cls-2" d="M765.63,773.22s226.18-24,363.07-36.41c171.72-15.61,318.91,23.93,318.91,23.93" transform="translate(-509.26 -447.69)"/><path class="cls-2" d="M1352.6,477.48c1.43,6.94,14.84,84.78-5.89,206.26-5.5,32.25-7.58,61-6.33,130.92" transform="translate(-509.26 -447.69)"/><path class="cls-2" d="M1391.53,494.46s29.59,105-.83,197.61c-9.54,29-11.54,57.22-13.62,123.29" transform="translate(-509.26 -447.69)"/><path class="cls-2" d="M1433.23,537.45s25.17,93.23-7.21,176.47c-7.38,19-14.72,63.47-16.11,101.44" transform="translate(-509.26 -447.69)"/><path class="cls-2" d="M1312.19,464.67s8.84,116.07-6.86,216c-5.08,32.29-6.41,69.36-4.19,134" transform="translate(-509.26 -447.69)"/><path class="cls-2" d="M1001.68,713.71" transform="translate(-509.26 -447.69)"/><path class="cls-5" d="M678.41,807.58s-10-33.07-12.22-55.8,20-20.67,20-20.67h23.16c10.53,0,16.85-1,25.27,0,3.41.42,19-1,24.21,12.4,5.5,14,6.76,12.4,13.46,65.31" transform="translate(-509.26 -447.69)"/></g><g id="레이어_7" data-name="레이어 7"><path class="cls-6" d="M1362.85,479.81c-110.47-38.59-230.19-57.26-463.15,46.82-174.67,78-233.06,102.41-315,120.7-37.29,8.32-87.33,36.41-70.65,102,4.25,16.7,15.7,58.27,15.7,58.27l903.74,8.32S1527,537.15,1362.85,479.81Z" transform="translate(-509.26 -447.69)"/></g></svg>