<svg xmlns="http://www.w3.org/2000/svg" viewBox="0 0 1033.39 1367.33"><defs><style>.cls-1{fill:#fff;stroke-width:2px;}.cls-1,.cls-2,.cls-3,.cls-4{stroke:#000;stroke-miterlimit:10;}.cls-2,.cls-4{fill:none;}.cls-2,.cls-3{stroke-width:0.5px;}.cls-3{fill:#999;opacity:0.7;}.cls-4{stroke-width:4px;}</style></defs><g id="레이어_5" data-name="레이어 5"><path class="cls-1" d="M1268.21-45s-120.57,187.32-189.85,438.37c-52.16,189,86,215.37,150.51,256.39,63.28,40.21,98.29,85.91,139.39,407.2,2.89,22.57,9.71,68.38,10.26,90.49.86,34.18,5.38,55.28,29.08,60.32,170.89,36.4,389.1,117.64,688.4,109.6V-45Z" transform="translate(-1064.84 47.41)"/></g><g id="레이어_1" data-name="레이어 1"><path class="cls-2" d="M1429.1,1210.45c-23.28-368.61-107.78-446.2-107.78-446.2L1308,750.78" transform="translate(-1064.84 47.41)"/><path class="cls-2" d="M1342.6,886.41s34.21,44.51,54.67,317.51" transform="translate(-1064.84 47.41)"/><path class="cls-2" d="M1268.21,680.93s54.3,31.67,113.38,107.88c53.25,68.69,69.19,207.32,93.29,432.43" transform="translate(-1064.84 47.41)"/><path class="cls-2" d="M1070.44,505.72s142.63-340.58,511-550.72" transform="translate(-1064.84 47.41)"/><path class="cls-2" d="M1085.2,546.2s354-417.26,830.36-591.2" transform="translate(-1064.84 47.41)"/><path class="cls-2" d="M1075.42,523.64S1246.82,236.52,1699.63-45" transform="translate(-1064.84 47.41)"/><path class="cls-2" d="M1066.84,473.12S1169.53,182.23,1439.07-45" transform="translate(-1064.84 47.41)"/><path class="cls-2" d="M1070.44,428.81s73-228.48,279.9-473.81c0,0,8.09,368.49,430.53,532.38,57,22.12,119.73,77.42,134.26,187,21.81,164.38,28.65,636.94,28.65,636.94" transform="translate(-1064.84 47.41)"/><path class="cls-2" d="M1104.83,571.92s65.89-6.62,236.07-126.27S2080.61,77,2096,78.82" transform="translate(-1064.84 47.41)"/><path class="cls-2" d="M1139.82,600.9s161.74-18.51,291.72-86.88S2030.15,284.61,2096,270.12" transform="translate(-1064.84 47.41)"/><path class="cls-2" d="M1120.4,586.57s50.32,4.87,267.53-105.73S1926.68,244,2096,183.45" transform="translate(-1064.84 47.41)"/><path class="cls-2" d="M1093.71,558.47s103.66-70.81,166-116.84C1439.24,308.91,1883.92,47.5,2096-45" transform="translate(-1064.84 47.41)"/><path class="cls-2" d="M1379,1158.9s446.77,104.58,717,132" transform="translate(-1064.84 47.41)"/><path class="cls-2" d="M1376.25,1119.1s470.9,97.65,719.75,116.79" transform="translate(-1064.84 47.41)"/><path class="cls-2" d="M1268.21-45s-60.49,309.74,128.27,453.45c104.33,79.43,136.42,92.64,244.58,150.82,62.38,33.55,97.91,56.8,127,279,30.06,229.78,45.75,461,45.75,461" transform="translate(-1064.84 47.41)"/><path class="cls-2" d="M1221.5,36.69S1180.13,254.62,1293,385.33s163.78,127.1,266.81,187c65.12,37.86,103.9,64.85,139.81,310.32,39.3,268.62,52.6,400.52,52.6,400.52" transform="translate(-1064.84 47.41)"/><path class="cls-2" d="M1194.91,88.89s-90.52,339.67,304.19,505.57c44,18.47,90.65,43.23,118.87,180s65.84,498.7,65.84,498.7" transform="translate(-1064.84 47.41)"/><path class="cls-2" d="M1302.41-45s-32.92,397.65,397.22,569.58c13.41,5.36,127.42,47.26,139,222.7,9.31,141.58,41.05,559,41.05,559" transform="translate(-1064.84 47.41)"/><path class="cls-2" d="M1177,621.71s156.23-5.13,374.29-88.58c210.19-80.44,439.11-163.08,544.75-185.89" transform="translate(-1064.84 47.41)"/><path class="cls-2" d="M1215.28,642s129.89,15.82,472.81-106.84c0,0,292.86-89,407.91-118.32" transform="translate(-1064.84 47.41)"/><path class="cls-2" d="M1439.24-45s45.26,365.63,428.86,501.21c139.39,49.27,130.84,185,158.63,860.15" transform="translate(-1064.84 47.41)"/><path class="cls-2" d="M1639.77-44.5S1752,277.42,2096,382.09" transform="translate(-1064.84 47.41)"/><path class="cls-2" d="M1755.94-46.95s123.28,261.86,342.2,346.31" transform="translate(-1064.84 47.41)"/><path class="cls-2" d="M1159.69,165.11s-62.34,272.17,279.55,450.46c48,25.06,99.89,59.36,133.4,191,28.38,111.48,49.6,257.39,68.42,458.47" transform="translate(-1064.84 47.41)"/><path class="cls-2" d="M1370.83,1079.08s339.49,62.34,726,98.53" transform="translate(-1064.84 47.41)"/><path class="cls-2" d="M1365.7,1039.87s464.35,62.33,730.3,73.39" transform="translate(-1064.84 47.41)"/><path class="cls-2" d="M1475.16,748.29" transform="translate(-1064.84 47.41)"/><path class="cls-2" d="M1361.42,1004.68c0-1,446.39,51.27,734.58,59.32" transform="translate(-1064.84 47.41)"/><path class="cls-2" d="M1355.43,961.44s576.38,56.31,741.43,45.25" transform="translate(-1064.84 47.41)"/><path class="cls-2" d="M1348.59,922.23s614.86,36.2,748.27,13.07" transform="translate(-1064.84 47.41)"/><path class="cls-2" d="M1342.61,886s503.68,6,753.39-8" transform="translate(-1064.84 47.41)"/></g><g id="레이어_4" data-name="레이어 4"><path class="cls-3" d="M1129.2,240.62c-8.19,37.7-4.5,77,5.28,114a386.26,386.26,0,0,0,46.9,106.77c19.46,30.86,44.58,58.9,72.53,82.32,27,22.67,57.32,41,87.73,58.72,30.64,17.86,61.73,35.24,90.19,56.51,30.16,22.54,55.62,49.6,75,82,41.8,69.77,54.59,152.37,64.1,231.84,10.12,84.65,21.41,169.18,28.28,254.17q1.32,16.45,2.45,32.93c0,.19.32.19.3,0-5.8-84.23-16.26-167.95-26.46-251.73-9.73-79.8-17.78-161.94-51.82-235.84-15.42-33.48-36.15-64.4-63.07-89.72-25.18-23.67-54.39-42.47-84-60.06-30.62-18.17-62-35.23-91.32-55.44a392.33,392.33,0,0,1-81.73-75.24c-24.92-30.53-44-66.15-57.83-103-14.13-37.73-22.92-78.45-20.34-118.89a196.09,196.09,0,0,1,4.09-29.25c0-.19-.25-.27-.29-.08Z" transform="translate(-1064.84 47.41)"/><path class="cls-3" d="M1103.28,313.82c-1.06,39.31,2.29,79.19,13.07,117.12,10.35,36.42,28.75,68.85,53.48,97.44,12.59,14.56,25.83,29,40.69,41.22,14.54,12,30.52,22.08,47,31.13,33.87,18.57,69.72,33.22,103.17,52.59,25,14.45,48.43,31.37,68.21,52.49,23.52,25.13,41.47,54.89,57,85.46,15.86,31.3,25.5,64.93,32.92,99.12,8.9,41,14.74,82.71,19.5,124.41,7.54,66,14,132.24,18.57,198.47q1.13,16.32,2.11,32.65c0,.2.31.2.3,0-4.07-66.72-10.6-133.2-17.31-199.69-4.19-41.57-9.25-83.11-16.63-124.24-6.45-35.9-14.34-72.09-27.84-106.08-6.31-15.88-14.3-31.11-22.66-46a374.34,374.34,0,0,0-27.4-42.47,263.42,263.42,0,0,0-60.89-58.22c-29-20-60.91-35-92.52-50.29-35.17-17-70.34-35.28-98.3-63.12s-53.76-59.09-69.07-95.95c-15.23-36.68-21.58-76.77-23-116.28-.35-9.92-.36-19.84-.09-29.76a.15.15,0,0,0-.3,0Z" transform="translate(-1064.84 47.41)"/><path class="cls-3" d="M1082.66,375.51c-.94,36.23,2.5,72.94,13,107.72,5,16.36,11.44,32.53,20.27,47.2a165.63,165.63,0,0,0,31.76,37.85c21.84,19.53,47.66,33.17,73.31,46.92s51.2,28,76.52,42.63c29.68,17.09,61.16,32,85.93,56.22,12.68,12.4,23.28,27,33.18,41.67a343.29,343.29,0,0,1,23.55,40.37c14.68,29.78,24.33,61.52,32,93.72,6,25.15,11.74,50.35,16,75.86,6.39,37.88,9.6,76.15,13.91,114.3,4.65,41.12,9.56,82.25,11.84,123.59q.84,15.17,1.16,30.36a.15.15,0,0,0,.3,0c-.86-41.4-5-82.61-9.58-123.73-4.4-39.36-7.87-78.91-13.29-118.14-3.89-28.14-9.24-56-15.68-83.68-7-30-14.34-59.93-25.85-88.58a355.23,355.23,0,0,0-45.92-80.69c-10.39-13.84-21.65-26.55-35.23-37.35-12.8-10.19-26.82-18.69-41-26.73-28.55-16.13-56.93-32.61-85.74-48.27-23-12.46-46.7-23.92-68.52-38.3-29.35-19.34-53.41-44.35-68-76.6-15.44-34.2-22.08-72-23.57-109.32-.36-9-.39-18-.15-27a.15.15,0,0,0-.3,0Z" transform="translate(-1064.84 47.41)"/><path class="cls-3" d="M1252.4,666.15c55.64,6.67,111.9,6.28,167.62.79,55.57-5.47,110.56-15.89,164.77-29.1,55-13.41,109.28-29.69,163.27-46.72s107.5-34.76,161.51-51.33,109-32.75,165.53-38.59c7-.72,13.93-1.26,20.91-1.66.2,0,.2-.31,0-.3-55.62,3.13-109.8,17.26-163,33.12-54.38,16.22-108.27,34-162.32,51.26s-108.12,34-163,48.14-110.43,25.78-166.69,32.57c-55.57,6.71-111.83,8.7-167.63,3.72-7-.62-14-1.37-21-2.2-.19,0-.19.27,0,.3Z" transform="translate(-1064.84 47.41)"/><path class="cls-3" d="M1314.92,768.79c50.45,2.07,100.94-.86,151.06-6.67,49.83-5.77,99.29-14.26,148.68-23,50.49-8.91,101-17.74,151.71-25.35q77.39-11.6,155.2-20.08,77.43-8.37,155.2-13.2,9.61-.6,19.24-1.12c.2,0,.2-.31,0-.3q-77.39,4.27-154.5,12.22-76.74,7.86-153.1,18.94c-50.88,7.34-101.58,15.82-152.21,24.77-50.17,8.88-100.34,17.89-150.88,24.43-50.18,6.49-100.77,10.5-151.4,9.6q-9.51-.16-19-.56c-.2,0-.2.29,0,.3Z" transform="translate(-1064.84 47.41)"/><path class="cls-3" d="M1336.81,853.51q148.44-4.47,296.86-9.46,147.22-4.93,294.44-10.33,83.78-3.06,167.54-6.25c.19,0,.2-.31,0-.3q-148.39,5.66-296.82,10.9-147.21,5.19-294.45,9.93-83.78,2.68-167.57,5.21c-.19,0-.19.31,0,.3Z" transform="translate(-1064.84 47.41)"/><path class="cls-3" d="M1294.49,721.46c47.33,1.07,94.71-1.09,141.85-5.29q77-6.87,153.18-20.93c51.62-9.47,102.59-21.62,153.08-35.91,54.55-15.45,109.23-30.54,164.5-43.24s111-22.93,167.35-28.69q10.35-1.06,20.7-1.91c.19,0,.19-.32,0-.3-55.51,4.61-110.54,13.67-165,25.44-55.28,12-109.94,26.59-164.39,41.85-51.15,14.33-102.25,28-154.39,38.29q-77.64,15.32-156.49,23.33c-47.89,4.84-96.05,7.65-144.2,7.3q-8.12-.06-16.23-.24c-.19,0-.19.29,0,.3Z" transform="translate(-1064.84 47.41)"/><path class="cls-3" d="M1325.63,808.92q75.55,1,151-4.63c49.23-3.67,98.27-9.38,147.17-16.07,47.57-6.5,95.16-11.28,143-15,50-3.82,99.86-7.43,150-8.06,53-.67,106-2.53,159-3.38q9.93-.17,19.87-.25a.15.15,0,0,0,0-.3c-53,.47-106,2.71-159,3.42-26.29.35-52.55.71-78.82,2-24.57,1.18-49.08,3.15-73.6,5-46.3,3.48-92.69,6.89-138.7,13.24-50.09,6.91-100.21,13.38-150.61,17.64q-74.67,6.32-149.66,6.25-9.83,0-19.65-.16a.15.15,0,0,0,0,.3Z" transform="translate(-1064.84 47.41)"/><path class="cls-3" d="M1530.6-43.95a318.51,318.51,0,0,0,18,68c7.53,19.59,16.12,38.85,24.6,58.05,15.6,35.32,33,70.14,56.44,101,21.26,28.07,47,52.3,72.69,76.24s51.74,48.12,80.89,67.85c21.84,14.78,45.67,26,69.43,37.3,29.42,13.95,58.89,27.73,86.86,44.43,29.63,17.7,59.27,36.42,86,58.4,9.92,8.17,18.6,16.73,25.17,27.86,8,13.48,13.56,28.31,18.14,43.24,10.83,35.38,16.27,72.38,20.14,109.09,3.4,32.3,5.28,64.75,6.42,97.21q.29,8.32.53,16.66c0,.19.31.19.3,0-.87-29.2-2.13-58.39-4.5-87.52-3-36.58-7.36-73.25-15.58-109.05-3.8-16.54-8.45-33-14.89-48.71-4.82-11.78-10.63-24-19.07-33.63-9-10.25-20.17-18.65-31-26.73-14.38-10.69-29.27-20.69-44.36-30.34-13.43-8.59-27-16.93-40.88-24.82s-28.34-14.88-42.74-21.86c-26.82-13-54.39-24.84-80.28-39.67s-49.08-33.8-71.39-53.57c-29.23-25.92-58.65-52.47-84.53-81.8-23.58-26.72-42.27-56.81-58-88.69-10.17-20.55-19.09-41.65-28.2-62.69-8.52-19.67-16.66-39.49-22.3-60.21a308.22,308.22,0,0,1-7.46-36.1c0-.19-.32-.11-.29.08Z" transform="translate(-1064.84 47.41)"/><path class="cls-3" d="M1884.65-46.94c10.84,19.72,22.44,39,34.94,57.73q17.39,26,37.13,50.35,19,23.34,40.24,44.74c14,14.1,28.65,27.52,43.86,40.29,15.44,12.94,31.43,25.22,47.82,36.93,2.11,1.5,4.22,3,6.34,4.48.16.11.31-.15.15-.26-16.74-11.75-33.11-24.06-48.91-37.06-15.25-12.54-30-25.73-44-39.6q-21.32-21-40.52-44-20-24-37.64-49.86c-12.46-18.23-24-37-34.87-56.27q-2.14-3.81-4.24-7.63c-.1-.17-.36,0-.26.15Z" transform="translate(-1064.84 47.41)"/><path class="cls-3" d="M1989.83-43.92a230.22,230.22,0,0,0,30.65,51.68A236.89,236.89,0,0,0,2065,51.18a235.09,235.09,0,0,0,31,19.57c.17.09.33-.16.16-.25a236.27,236.27,0,0,1-52-37.26,235.74,235.74,0,0,1-38.7-47.67,227.55,227.55,0,0,1-15.31-29.64c-.08-.18-.33,0-.26.15Z" transform="translate(-1064.84 47.41)"/></g><g id="_1-1" data-name="1-1"><path class="cls-4" d="M1268.21-45s-120.57,187.32-189.85,438.37c-52.16,189,86,215.37,150.51,256.39,63.28,40.21,98.29,85.91,139.39,407.2,2.89,22.57,9.71,68.38,10.26,90.49.86,34.18,5.38,55.28,29.08,60.32,170.89,36.4,389.1,117.64,688.4,109.6V-45Z" transform="translate(-1064.84 47.41)"/></g></svg>