<svg xmlns="http://www.w3.org/2000/svg" viewBox="0 0 769.73 1054.46"><defs><style>.cls-1,.cls-2,.cls-3,.cls-4{fill:#fff;}.cls-1,.cls-2,.cls-3,.cls-4,.cls-5{stroke:#000;stroke-miterlimit:10;}.cls-1{stroke-width:2px;}.cls-2{stroke-width:0.75px;}.cls-3{stroke-width:3px;}.cls-4{stroke-linecap:round;}.cls-4,.cls-5{stroke-width:0.5px;}.cls-5{fill:none;}</style></defs><g id="레이어_16" data-name="레이어 16"><polygon class="cls-1" points="477.56 718.41 374.69 718.41 384.2 689.19 477.56 689.19 477.56 718.41"/><line class="cls-2" x1="380.82" y1="695.45" x2="477.83" y2="695.45"/><polygon class="cls-3" points="700.07 1009.56 287.53 1009.56 310.6 839.46 664.88 839.46 700.07 1009.56"/><polygon class="cls-1" points="419.17 661.02 387.42 671.85 364.2 744.25 423.49 671.45 419.17 661.02"/><path class="cls-3" d="M-2.51,958.51c139.66,0,286.15-21.48,312.09-58.44,19.77-28.17,25.34-139.83,135.34-400.72S492.51.54,492.51.54h-495Z" transform="translate(8.23 0.96)"/><rect class="cls-1" x="374.7" y="718.41" width="147.49" height="60.53"/><rect class="cls-1" x="354.12" y="778.94" width="227.93" height="60.53"/><line class="cls-2" x1="287.53" y1="991.82" x2="700.07" y2="991.82"/><line class="cls-2" x1="287.8" y1="972.14" x2="700.34" y2="972.14"/><line class="cls-2" x1="288.07" y1="952.46" x2="700.61" y2="952.46"/><line class="cls-2" x1="288.34" y1="932.78" x2="700.89" y2="932.78"/><line class="cls-2" x1="288.61" y1="913.11" x2="701.16" y2="913.11"/><line class="cls-2" x1="288.88" y1="893.43" x2="701.43" y2="893.43"/><line class="cls-2" x1="289.15" y1="873.75" x2="701.7" y2="873.75"/><line class="cls-2" x1="294.84" y1="854.07" x2="644.57" y2="854.07"/><line class="cls-2" x1="354.39" y1="829.03" x2="582.32" y2="829.03"/><line class="cls-2" x1="354.39" y1="818.85" x2="582.32" y2="818.85"/><line class="cls-2" x1="354.39" y1="808.68" x2="582.32" y2="808.68"/><line class="cls-2" x1="354.39" y1="798.5" x2="582.32" y2="798.5"/><line class="cls-2" x1="354.39" y1="788.33" x2="582.32" y2="788.33"/><line class="cls-2" x1="374.7" y1="768.5" x2="514.92" y2="768.5"/><line class="cls-2" x1="374.97" y1="758.33" x2="515.19" y2="758.33"/><line class="cls-2" x1="374.97" y1="727.8" x2="515.19" y2="727.8"/><line class="cls-2" x1="374.97" y1="737.98" x2="515.19" y2="737.98"/><line class="cls-2" x1="374.97" y1="748.15" x2="515.19" y2="748.15"/><line class="cls-2" x1="374.7" y1="712.15" x2="477.56" y2="712.15"/><line class="cls-2" x1="374.97" y1="703.8" x2="477.83" y2="703.8"/><path class="cls-3" d="M402,663.19c-35.24,28.42-99.35,144.81-106.34,159-.37.76-2.63,5.64-3.07,6.29-2.94,4.37-15,26.2-29,62.72-14.3,37.13-53.15,128.36-53.15,128.36s-13,26.09,3.09,27.13,79.41-37.05,79.41-37.05,89.33-244.18,121.83-321.93C417.1,682,418.79,649.62,402,663.19Z" transform="translate(8.23 0.96)"/><path class="cls-3" d="M454,660.06c3.2,0,10.93,5.79,11.53,6.26C509.32,700.51,628,808.24,628,808.24c54.21,44.89,54.5,45.36,69.89,69.92,13.35,21.31,44.38,117.56,61.25,164.36,2.65,7.36-.54,12.52-8.85,7.45l-59.31-39.41A64.36,64.36,0,0,1,684,1005L453.4,695.54c-2.45-3.17-4.32-5.71-5.13-8.35C446.35,680.93,444.55,660.06,454,660.06Z" transform="translate(8.23 0.96)"/></g><g id="레이어_17" data-name="레이어 17"><path class="cls-4" d="M236.65,1039.91l45.74-156.53s13-50.09,128.54-223.32" transform="translate(8.23 0.96)"/><path class="cls-5" d="M451.83,661.62C456.16,670,617.6,817.49,671,874.51c25,26.69,18.26,17.74,60.49,163.83" transform="translate(8.23 0.96)"/></g><g id="레이어_18" data-name="레이어 18"><path class="cls-5" d="M180.34.54c14.63,0,215,373.59,255.27,519.69" transform="translate(8.23 0.96)"/><path class="cls-5" d="M281.28.54S435.61,368.91,453.9,473.27" transform="translate(8.23 0.96)"/><path class="cls-5" d="M366.13.54s100.93,319.33,109,412.2" transform="translate(8.23 0.96)"/><path class="cls-5" d="M494.86,336.56C485.35,218.64,440.73,11,437.07.54" transform="translate(8.23 0.96)"/><path class="cls-5" d="M74.29.54s267,360,346,558.3" transform="translate(8.23 0.96)"/><path class="cls-5" d="M-2.51,75.68C12.85,83,347.84,484.75,406.35,595.36" transform="translate(8.23 0.96)"/><path class="cls-5" d="M-1.78,260.38C4.07,263.52,298.83,538,385.87,652.75" transform="translate(8.23 0.96)"/><path class="cls-5" d="M-2.51,427.35s222.35,144,375.22,267.15" transform="translate(8.23 0.96)"/><line class="cls-5" x1="6.45" y1="580.66" x2="356.81" y2="734.06"/><path class="cls-5" d="M-1.78,702.84s237,65.75,321.83,75.14" transform="translate(8.23 0.96)"/><path class="cls-5" d="M-1.78,817.63s244.29,12.53,293.3,12.53" transform="translate(8.23 0.96)"/><path class="cls-5" d="M-1.78,923s209.19-18.78,265.51-31.3" transform="translate(8.23 0.96)"/></g><g id="레이어_19" data-name="레이어 19"><path class="cls-5" d="M415.66,0S156.43,213.36-2.88,574.23" transform="translate(8.23 0.96)"/><path class="cls-5" d="M300.64,4.2S78.42,252-8,408.05" transform="translate(8.23 0.96)"/><path class="cls-5" d="M54.54-.5s-49,56.35-57,76.18" transform="translate(8.23 0.96)"/><path class="cls-5" d="M506.56,92.37S205.72,334.67-8,918.34" transform="translate(8.23 0.96)"/><path class="cls-5" d="M512.05,168S211,464.46,62.58,958.51" transform="translate(8.23 0.96)"/><path class="cls-5" d="M506.93,231.54S235.24,576.75,128.41,952.25" transform="translate(8.23 0.96)"/><path class="cls-5" d="M501.44,294.82S284.21,631.88,185.46,945" transform="translate(8.23 0.96)"/><path class="cls-5" d="M475.11,412.74S370.51,592.23,271,872.94" transform="translate(8.23 0.96)"/><path class="cls-5" d="M165.71.54c-3.65,0-103.86,120-167.49,228.54" transform="translate(8.23 0.96)"/><path class="cls-5" d="M494.86,4.72S80.14,404.39-3.25,757.11" transform="translate(8.23 0.96)"/></g></svg>