<?xml version="1.0" encoding="utf-8"?>
<!-- Generator: Adobe Illustrator 24.1.0, SVG Export Plug-In . SVG Version: 6.00 Build 0)  -->
<svg version="1.1" id="레이어_1" xmlns="http://www.w3.org/2000/svg" xmlns:xlink="http://www.w3.org/1999/xlink" x="0px"
	 y="0px" viewBox="0 0 682 682" style="enable-background:new 0 0 682 682;" xml:space="preserve">
<style type="text/css">
	.st0{fill:none;stroke:#000000;stroke-width:50;stroke-linecap:round;stroke-linejoin:round;stroke-miterlimit:10;}
</style>
<path class="st0" d="M647.2,165.3c-7.4-30.2-29-54.1-56.4-62.2c-50-15.1-250.2-15.1-250.2-15.1s-200.1,0-250.2,14.5
	c-26.9,8.1-49,32.5-56.4,62.8C21,220.5,21,335,21,335s0,115.1,13.2,169.7c7.4,30.2,29,54.1,56.4,62.2C141.1,582,340.7,582,340.7,582
	s200.1,0,250.2-14.5c27.4-8.1,49-32,56.4-62.2c13.2-55.2,13.2-169.7,13.2-169.7S660.9,220.5,647.2,165.3z M276.9,440.8V229.2
	L443.4,335L276.9,440.8z"/>
</svg>
