<?xml version="1.0" encoding="utf-8"?>
<!-- Generator: Adobe Illustrator 24.1.0, SVG Export Plug-In . SVG Version: 6.00 Build 0)  -->
<svg version="1.1" id="Capa_1" xmlns="http://www.w3.org/2000/svg" xmlns:xlink="http://www.w3.org/1999/xlink" x="0px" y="0px"
	 viewBox="0 0 443.5 443.5" style="enable-background:new 0 0 443.5 443.5;" xml:space="preserve">
<style type="text/css">
	.st0{fill:#FFFFFF;}
</style>
<g>
	<path class="st0" d="M323.9,451c-6.4,0-12.5-2.4-17.1-6.9L102,239.2c-9.6-9.6-9.6-25.2,0-34.7L306.8-0.3c4.6-4.6,10.8-7.2,17.4-7.2
		c6.6,0,12.7,2.6,17.4,7.2c9.6,9.6,9.6,25.2,0,34.7L154.1,221.9l187.5,187.5c9.2,9.6,9.2,24.6,0,34.1C337,448.4,330.7,451,323.9,451
		z"/>
	<path d="M324.2-5c5.9,0,11.4,2.3,15.6,6.5c8.6,8.6,8.6,22.6,0,31.2L150.6,221.9l189.2,189.2l0,0l0,0c8.3,8.6,8.3,22.1,0,30.7
		c-4.2,4.3-9.8,6.7-15.9,6.7c-5.7,0-11.2-2.2-15.3-6.2l0,0l0,0L103.8,237.5c-8.6-8.6-8.6-22.6,0-31.2L308.6,1.5
		C312.7-2.7,318.3-5,324.2-5 M319.3,0.7c1.6-0.5,3.2-0.7,4.9-0.7c0.8,0,1.6,0.1,2.4,0.2c0.8,0.1,1.6,0.3,2.4,0.5
		c-0.8-0.2-1.6-0.4-2.4-0.5C325.8,0.1,325,0,324.2,0C322.5,0,320.9,0.2,319.3,0.7 M340.9,428c0,0.1,0,0.2,0,0.3
		C340.9,428.2,340.9,428.1,340.9,428C340.9,428,340.9,428,340.9,428C340.9,428,340.9,428,340.9,428 M313.4,439.9
		c-0.4-0.4-0.9-0.7-1.3-1.1C312.5,439.1,312.9,439.5,313.4,439.9 M334.9,439.5c-0.2,0.1-0.3,0.2-0.5,0.4
		C334.6,439.7,334.8,439.6,334.9,439.5 M314.8,440.8c-0.3-0.2-0.6-0.4-0.9-0.6C314.2,440.4,314.5,440.6,314.8,440.8 M333.5,440.6
		c-0.2,0.1-0.4,0.2-0.6,0.4C333.2,440.8,333.4,440.7,333.5,440.6C333.5,440.6,333.6,440.6,333.5,440.6
		C333.6,440.6,333.5,440.6,333.5,440.6 M316.2,441.7c-0.3-0.1-0.6-0.3-0.9-0.5C315.6,441.4,315.9,441.5,316.2,441.7 M332.1,441.5
		c-0.2,0.1-0.4,0.2-0.6,0.3c0,0,0,0,0,0c0,0,0,0,0,0C331.7,441.7,331.9,441.6,332.1,441.5 M317.7,442.3c-0.3-0.1-0.6-0.3-0.9-0.4
		C317.2,442.1,317.4,442.2,317.7,442.3 M329.9,442.4c0.2-0.1,0.5-0.2,0.7-0.3C330.3,442.3,330.1,442.4,329.9,442.4 M318.9,442.7
		c0.1,0,0.3,0.1,0.4,0.1C319.1,442.8,319,442.8,318.9,442.7c-0.1,0-0.3-0.1-0.4-0.1C318.6,442.6,318.7,442.7,318.9,442.7 M329,442.8
		c-0.1,0-0.2,0.1-0.4,0.1c-0.1,0-0.2,0.1-0.4,0.1c0.1,0,0.2-0.1,0.4-0.1S328.9,442.8,329,442.8 M320.5,443.2c0.1,0,0.2,0.1,0.4,0.1
		C320.8,443.2,320.6,443.2,320.5,443.2c-0.2,0-0.3-0.1-0.5-0.1C320.2,443.1,320.3,443.1,320.5,443.2 M327.4,443.2
		c-0.2,0-0.3,0.1-0.5,0.1c-0.1,0-0.2,0-0.3,0c0.1,0,0.2,0,0.3,0C327.1,443.2,327.2,443.2,327.4,443.2 M322.1,443.4
		c0.1,0,0.2,0,0.3,0C322.4,443.4,322.3,443.4,322.1,443.4c-0.2,0-0.3,0-0.5-0.1C321.8,443.4,322,443.4,322.1,443.4 M325.7,443.4
		c-0.3,0-0.5,0-0.8,0.1C325.2,443.5,325.5,443.4,325.7,443.4 M323.9,443.5c0,0,0.1,0,0.1,0C324.1,443.5,324.1,443.5,323.9,443.5
		c-0.2,0-0.4,0-0.7,0C323.5,443.5,323.7,443.5,323.9,443.5 M324.2-10c-7.2,0-14,2.8-19.1,7.9L100.2,202.7
		c-10.5,10.6-10.5,27.7,0,38.3L305,445.8l0,0l0.1,0.1c5.1,4.9,11.8,7.6,18.8,7.6c7.4,0,14.3-2.9,19.5-8.3
		c10.2-10.5,10.2-27.1,0-37.6l0,0l-0.1-0.1L157.6,221.9L343.3,36.2c10.6-10.6,10.6-27.7,0-38.3C338.2-7.2,331.4-10,324.2-10
		L324.2-10z"/>
</g>
</svg>
