<?xml version="1.0" encoding="utf-8"?>
<!-- Generator: Adobe Illustrator 24.1.0, SVG Export Plug-In . SVG Version: 6.00 Build 0)  -->
<svg version="1.1" id="Capa_1" xmlns="http://www.w3.org/2000/svg" xmlns:xlink="http://www.w3.org/1999/xlink" x="0px" y="0px"
	 viewBox="0 0 443.5 443.5" style="enable-background:new 0 0 443.5 443.5;" xml:space="preserve">
<style type="text/css">
	.st0{fill:#FFFFFF;}
</style>
<g>
	<path class="st0" d="M119.6,451c-6.7,0-13-2.7-17.7-7.5c-9.2-9.6-9.2-24.6,0-34.1l187.5-187.5L102,34.4c-9.6-9.6-9.6-25.2,0-34.7
		c4.6-4.6,10.8-7.2,17.4-7.2c6.6,0,12.7,2.6,17.4,7.2l204.8,204.8c9.6,9.6,9.6,25.2,0,34.7L136.6,444.1C132,448.6,126,451,119.6,451
		z"/>
	<path d="M119.4-5c5.9,0,11.4,2.3,15.6,6.5l204.8,204.8c8.6,8.6,8.6,22.6,0,31.2L135,442.3l0,0l0,0c-4.1,4-9.6,6.2-15.3,6.2
		c-6,0-11.7-2.4-15.9-6.7c-8.3-8.6-8.3-22.1,0-30.7l0,0l0,0L293,221.9L103.8,32.7c-8.6-8.6-8.6-22.6,0-31.2
		C107.9-2.7,113.5-5,119.4-5 M116.9,0.2c-0.8,0.1-1.6,0.3-2.4,0.5C115.3,0.5,116.1,0.3,116.9,0.2c0.8-0.1,1.6-0.2,2.4-0.2
		c0,0,0.1,0,0.1,0c1.6,0,3.2,0.2,4.8,0.7c-1.6-0.5-3.2-0.7-4.8-0.7c0,0-0.1,0-0.1,0C118.5,0,117.7,0.1,116.9,0.2 M102.6,428.3
		c0-0.1,0-0.2,0-0.3C102.6,428.1,102.6,428.2,102.6,428.3 M130.1,439.9c0.4-0.4,0.9-0.7,1.3-1.1C131,439.1,130.6,439.5,130.1,439.9
		 M108.7,439.6c0.1,0.1,0.3,0.2,0.4,0.3C108.9,439.8,108.8,439.7,108.7,439.6C108.6,439.6,108.6,439.5,108.7,439.6
		C108.6,439.5,108.6,439.6,108.7,439.6 M129.6,440.2c-0.3,0.2-0.6,0.4-0.9,0.6C129.1,440.7,129.3,440.4,129.6,440.2
		C129.6,440.2,129.7,440.2,129.6,440.2C129.7,440.2,129.6,440.2,129.6,440.2 M110.6,440.9c-0.2-0.1-0.4-0.2-0.6-0.4
		C110.2,440.7,110.4,440.8,110.6,440.9 M127.3,441.7c0.3-0.1,0.6-0.3,0.9-0.5C127.9,441.4,127.6,441.5,127.3,441.7 M112.1,441.8
		c-0.2-0.1-0.4-0.2-0.7-0.3C111.6,441.6,111.9,441.7,112.1,441.8 M126.6,442c-0.3,0.1-0.6,0.3-0.8,0.4c0,0,0,0,0,0c0,0,0,0,0,0
		C126.1,442.2,126.4,442.1,126.6,442 M113.3,442.3c0.1,0,0.2,0.1,0.4,0.1C113.5,442.4,113.4,442.4,113.3,442.3
		c-0.1,0-0.2-0.1-0.4-0.1C113.1,442.2,113.2,442.3,113.3,442.3 M125.1,442.6c-0.1,0-0.3,0.1-0.4,0.1c-0.1,0-0.3,0.1-0.4,0.1
		c0.1,0,0.3-0.1,0.4-0.1C124.8,442.7,124.9,442.6,125.1,442.6 M114.9,442.9c0.1,0,0.2,0.1,0.4,0.1
		C115.1,442.9,115,442.9,114.9,442.9c-0.1,0-0.2-0.1-0.4-0.1C114.6,442.8,114.8,442.8,114.9,442.9 M123,443.2
		c-0.1,0-0.2,0.1-0.4,0.1C122.8,443.2,122.9,443.2,123,443.2c0.2,0,0.3-0.1,0.5-0.1C123.3,443.1,123.2,443.1,123,443.2 M116.6,443.3
		c0.1,0,0.2,0,0.3,0C116.8,443.3,116.7,443.3,116.6,443.3c-0.2,0-0.3-0.1-0.5-0.1C116.3,443.2,116.5,443.2,116.6,443.3 M121.9,443.3
		c-0.2,0-0.3,0-0.5,0.1c-0.1,0-0.2,0-0.3,0c0.1,0,0.2,0,0.3,0C121.6,443.4,121.7,443.4,121.9,443.3 M118.4,443.5c0.1,0,0.1,0,0.2,0
		C118.5,443.5,118.4,443.5,118.4,443.5c-0.2,0-0.4,0-0.6,0C118,443.4,118.2,443.4,118.4,443.5 M119.5,443.5
		C119.5,443.5,119.4,443.5,119.5,443.5C119.5,443.5,119.5,443.5,119.5,443.5c0.3,0,0.6,0,0.8,0C120,443.5,119.8,443.5,119.5,443.5
		 M119.4-10c-7.2,0-14,2.8-19.1,7.9c-10.6,10.6-10.6,27.7,0,38.3l185.7,185.7L100.2,407.5l0,0l-0.1,0.1c-10.2,10.6-10.2,27.1,0,37.6
		c5.1,5.3,12.1,8.3,19.5,8.3c7.1,0,13.7-2.7,18.8-7.6l0,0l0.1-0.1L343.3,241c10.5-10.6,10.5-27.7,0-38.3L138.5-2.1
		C133.4-7.2,126.6-10,119.4-10L119.4-10z"/>
</g>
</svg>
