<svg xmlns="http://www.w3.org/2000/svg" viewBox="0 0 1481.37 787.81"><defs><style>.cls-1{fill:#e6e6e6;}.cls-2{fill:#ccc;}.cls-3{fill:none;stroke:#ccc;stroke-width:1.5px;}.cls-3,.cls-4{stroke-miterlimit:10;}.cls-4{stroke:#000;}.cls-5{fill:#b3b3b3;}.cls-6{fill:#fff;}</style></defs><g id="레이어_2" data-name="레이어 2"><g id="레이어_4" data-name="레이어 4"><path class="cls-1" d="M1334.32,569.46a210.59,210.59,0,0,0-37.12,56.19c-1.6,3.56-3,8-.74,11.12,1.44,2,4,2.83,6.25,3.73,15,6,25.78,19.08,36.9,30.82A288.13,288.13,0,0,0,1422,731.85c5.72,2.79,12.51,5.41,18.23,2.61,5.33-2.61,7.6-9,8.33-14.88,2-16.34-3.91-32.51-10-47.8q-9.72-24.46-20.3-48.58c-4.78-10.91-9.85-22-18.13-30.57-17.33-17.93-44.49-21.07-69.34-23.16"/><path class="cls-1" d="M52.42,430.24c-.1-.26,50.87-78,50.87-78l126.77-68.83,86.78-34.6s68.48-23.95,70.17-26.19,75.84-5,75.84-5l-24.69,25L332.25,317l-151,77.23-128.84,36"/><path class="cls-2" d="M1303.92,578.35c-8.66,13.12-9,29.84-4.53,44.52,4.86,15.79,15.49,28.88,27.43,40,6.28,5.84,13,11.22,19.72,16.51s13.71,10.72,20.68,15.93c14.08,10.54,28.68,20.54,44.45,28.42,7.49,3.74,15.36,7.34,23.43,9.61,5.63,1.58,13.06,2.51,18-1.37,6.79-5.33,2.89-14.81.75-21.46q-4.17-13-8.92-25.73-9.51-25.51-21.25-50.12t-25.63-48c-4.59-7.74-9.26-15.46-14.29-22.92-2.16-3.2-4.72-6.15-8.53-7.34-4-1.25-8.43-.79-12.52-.48a130,130,0,0,0-49.6,14q-5.71,3-11.12,6.47c-.81.52-.06,1.82.76,1.29a128.73,128.73,0,0,1,47-18.63,124.73,124.73,0,0,1,12.78-1.65c4.07-.31,8.59-.85,12.54.47s6.36,4.92,8.55,8.29q3.59,5.52,7.05,11.12,13.88,22.38,25.75,45.92t21.78,48.21q4.9,12.23,9.26,24.65,2.17,6.21,4.22,12.47c1.32,4,2.93,8.18,3.61,12.41.6,3.77-.15,7.82-3.44,10.13-2.5,1.75-5.7,2.15-8.67,2.07a33.43,33.43,0,0,1-9.49-1.81c-4.1-1.37-8.14-2.93-12.1-4.64-15.62-6.74-30.12-15.79-44-25.63-7-5-13.91-10.22-20.73-15.51-6.57-5.09-13.16-10.18-19.56-15.49-12.46-10.34-24.56-22-32-36.56-6.86-13.41-9.73-29.79-5-44.34a41.86,41.86,0,0,1,4.87-10c.53-.81-.77-1.56-1.3-.76Z"/><line class="cls-3" x1="231.63" y1="240.91" x2="256.98" y2="227.55"/><line class="cls-3" x1="236.48" y1="248.04" x2="263.9" y2="233.73"/><line class="cls-3" x1="240.33" y1="255.16" x2="269.9" y2="239.73"/><line class="cls-3" x1="244.41" y1="262.71" x2="274.29" y2="246.47"/><path class="cls-2" d="M1299.52,619.73,1339,660l39.52,40.3c10.88,11.1,21.75,23.21,35.74,30.46a43.58,43.58,0,0,0,20.39,5.28c3.3,0,7.13-.3,9.69-2.64s2.76-5.78,2.5-8.9c-.35-4.06-1.18-8.12-1.86-12.13q-1.08-6.37-2.32-12.73-2.49-12.82-5.58-25.52-6.19-25.38-14.73-50.1-8.48-24.57-19.23-48.26-2.72-6-5.58-11.94c-1.51-3.13-3-6.36-5.41-9a11.22,11.22,0,0,0-9-3.79c-4.19.24-8.21,2.16-12.08,3.63-15.16,5.75-30.41,12.13-43.08,22.46-11.31,9.22-20.47,22.26-22.79,36.89a44.56,44.56,0,0,0-.42,10.51c.07.95,1.58,1,1.5,0-1.17-14.69,5.56-28.75,15.35-39.37,10.69-11.59,25-19,39.44-25,3.65-1.5,7.32-2.92,11-4.32,3.84-1.45,8-3.5,12.19-3.35,7.73.27,10.93,9.74,13.68,15.55q10.85,22.9,19.56,46.72,8.61,23.55,15.1,47.81t10.78,49.21c.7,4.06,1.52,8.16,1.92,12.27.34,3.44.05,7.35-3.39,9.14-3.12,1.62-7.32,1.43-10.72,1.14a40,40,0,0,1-10.18-2.3c-13.86-5-24.85-16-35-26.28L1348,667l-38.12-38.87-9.27-9.45c-.67-.69-1.73.37-1.06,1.06Z"/><path class="cls-2" d="M1041.9,732.73c69.83,12.83,145.6,24.72,215.42,37.55,42.44,7.8,85.12,15.62,128.26,16.18,1.42,0,3,0,4-1,1.72-1.64.73-4.55-.65-6.49-5.68-8.05-15.47-12-24.85-15-26.49-8.46-54.09-12.82-81.56-17.15-57.58-9.08-115.42-18.19-173.71-18.71a596,596,0,0,0-61.95,2.69"/><path class="cls-4" d="M1041.7,733.45c22.75,4.18,45.52,8.15,68.31,12.06,23.1,4,46.2,7.86,69.3,11.81q34.34,5.86,68.63,12c23.41,4.25,46.79,8.71,70.35,12.1,11.74,1.69,23.53,3.12,35.36,4.14q9,.78,18,1.22,4.59.21,9.18.33c2.36.06,5.06.46,7.37-.11,4.33-1.09,3.25-5.89,1.28-8.65a31.83,31.83,0,0,0-10-8.77c-8.88-5.2-19.38-7.81-29.25-10.43-22.71-6-46-9.65-69.16-13.31-23.8-3.75-47.6-7.49-71.48-10.61s-48.13-5.67-72.32-7a613.16,613.16,0,0,0-72.5.35q-9,.58-17.87,1.44c-1,.09-1,1.59,0,1.5a595.92,595.92,0,0,1,71.2-2.53c23.53.56,47,2.46,70.38,5.11,23.69,2.69,47.28,6.15,70.83,9.8,22.85,3.54,45.8,6.84,68.45,11.5,11.21,2.3,22.35,5,33.29,8.37,9.14,2.8,19,6,25.57,13.38,1.44,1.61,3.91,4.46,3,6.83s-5.38,1.67-7.45,1.62q-8.85-.2-17.68-.76c-11.66-.74-23.29-1.93-34.88-3.42-23.49-3-46.8-7.26-70.09-11.54q-33.16-6.09-66.4-11.76-34-5.85-68-11.58-33.45-5.7-66.87-11.65-8.1-1.46-16.19-2.94c-.94-.17-1.35,1.27-.4,1.45Z"/><path class="cls-5" d="M1011.26,719.54c-23.73-5.07-46.09-15.07-68.12-25.25-50.59-23.4-108.71-38.84-164.4-42.21-69.84-4.23-195.28,4.88-208-21.47-9.35-19.38,54-23.91,83.38-29.8,35.53-7.11,73.83-23.93,86.14-58,9.18-25.4,1.35-53.39-5.76-79.44-.53-1.92-1-4.05-.15-5.84a7.75,7.75,0,0,1,3.82-3.13c18-8.69,39.67-5.7,58,2.2s34.33,20.24,51.28,30.78c73.51,45.69,162.65,44.42,245,70.89,103,33.09,197.94,104.57,275.34,179.86,3.26,3.16,6.6,6.54,8,10.86s.18,9.85-3.88,11.89a13.73,13.73,0,0,1-6.37,1c-57.29-.62-108.19-31-165.38-34.65-13.32-.84-26.67-3.7-40-2.7-23.39,1.77-46.8-1.89-70.23-1-26.34,1-53,1.51-78.76-4"/><path class="cls-1" d="M1003.69,604a132.52,132.52,0,0,0-46.88,3.75c-5.17,1.36-11.22,4.25-11.41,9.58-.21,5.79,6.74,8.35,12.07,10.62,89.93,38.31,102.93,43.31,209.22,71,5.51,1.44,13,3.13,15.16-2.15.88-2.21.26-4.7-.37-7l-11-40a17.55,17.55,0,0,0-2.76-6.46c-2.52-3.16-6.83-4.17-10.79-5q-77.89-16-155.14-34.9"/><path class="cls-6" d="M1241.9,628.73c-6.84.38,6.2-.26,0,0-6,.25,91.53,98.85,86,99-78.47,2.12-143.25-15.88-264-8-16,1-73-7-79-8-1.32-.23,29.28,13.89,37,16,22,6,27,7,51,5.82,46-2.27,92.53-1.9,138,5.73,19.26,3.23,38.13,8.38,57,13.52l109.53,29.9c5.59,1.52,11.46,3.06,17.1,1.77s10.88-6.39,10.18-12.14c-.45-3.62-3-6.57-5.54-9.23-14.44-15.3-26.8-25.6-47.22-42.37C1323.9,697.73,1245.46,628.52,1241.9,628.73Z"/><path class="cls-4" d="M1241.9,628c-.67,0-1.37,0-2,.12s-1.09,1.25-.2,1.47a12.58,12.58,0,0,0,4-.16.76.76,0,0,0,.53-1.28c-.54-.67-2.87-.37-3.21.53-.24.64.24,1.41.53,1.94a51.77,51.77,0,0,0,5.76,7.51c8,9.44,16.39,18.47,24.75,27.53,10.17,11,20.41,21.94,30.56,33,7.44,8.09,15.07,16.11,21.94,24.69a35.15,35.15,0,0,1,2.32,3.13c.15.24.49.88.51.89.22.18,0,.14.07.14-.18,0,.39-.49.4-.46,0-.15-5.71.11-6.58.12q-3.72,0-7.44,0-7.48,0-15-.24c-19.7-.57-39.36-2.13-59-3.77-21.38-1.79-42.75-3.62-64.18-4.77-25.59-1.36-51.23-1.76-76.86-1q-10.9.3-21.8.87c-5.45.28-10.92.86-16.38.86-7.62,0-15.26-.74-22.84-1.47-16.28-1.59-32.52-3.64-48.71-6-1.18-.18-3.16-.88-4.35-.6a.77.77,0,0,0-.55.73c-.08,1,2.81,1.92,3.44,2.23,3.05,1.46,6.12,2.86,9.21,4.25,7.15,3.23,14.35,6.49,21.73,9.18,4.24,1.54,8.69,2.57,13.06,3.68a124.46,124.46,0,0,0,13.92,2.86c11.39,1.54,23,.54,34.38,0,30.27-1.3,60.64-1.37,90.86,1.11a447.67,447.67,0,0,1,45.58,5.92c14.93,2.79,29.64,6.63,44.29,10.6q44.63,12.1,89.22,24.35l22.55,6.15c6.64,1.82,13.7,4.37,20.69,3.39,5-.69,10-3.81,11.79-8.69,2.09-5.56-1.55-10.36-5.18-14.23-15.71-16.74-33.61-31-51.21-45.68-12.53-10.45-24.89-21.12-37.27-31.75-13.75-11.81-27.49-23.64-41.34-35.33-5.32-4.49-10.66-9-16.06-13.35a123.22,123.22,0,0,0-9.81-7.53,4.28,4.28,0,0,0-2.06-.95.75.75,0,0,0,0,1.5c-.08,0,.16,0,.44.22.45.26.88.53,1.3.82,1.42,1,2.78,2,4.13,3.07,4.51,3.5,8.9,7.15,13.28,10.8,12.92,10.77,25.67,21.74,38.44,32.69,13,11.16,26,22.34,39,33.41,14.9,12.63,30.33,24.64,44.68,37.9q6.15,5.68,12,11.71c4.13,4.25,10.85,9.83,8.09,16.48s-10.78,8.25-17.29,7.32c-7.34-1.06-14.58-3.6-21.72-5.55l-86.58-23.63c-14.21-3.88-28.4-7.87-42.73-11.26a401.68,401.68,0,0,0-42.71-7.65c-29.26-3.68-58.8-4.63-88.27-4.09-14.14.26-28.27,1.25-42.41,1.48a107.68,107.68,0,0,1-27.93-3.15,152.4,152.4,0,0,1-22.88-7.34q-10.74-4.5-21.29-9.49c-1-.46-2-.93-2.94-1.42a4.57,4.57,0,0,0-.88-.45c-.64-.13,0-.49-.06.38l-.55.72c-.47.11.15.07.43.12l1.11.18,3.15.46q4.65.66,9.31,1.29,12.77,1.72,25.57,3.2c8.85,1,17.72,1.95,26.61,2.51s17.87-.1,26.9-.56q40.06-2,80.18-.56c22.12.81,44.19,2.43,66.25,4.27,19.86,1.65,39.72,3.45,59.62,4.46,9.76.5,19.53.81,29.31.83,2.48,0,5,0,7.43,0l3.48-.05a17.22,17.22,0,0,0,3.52-.09c.83-.2,1.06-.72.84-1.53-.59-2.18-2.93-4.36-4.31-6-3.11-3.76-6.36-7.4-9.62-11-9.37-10.43-18.95-20.67-28.49-30.94-9.73-10.47-19.48-20.92-29-31.56-5.2-5.8-10.56-11.74-14.86-18.11-.26-.39.14-.21-.14,0-.59.35-.29.26.27.24a2.64,2.64,0,0,0,.69,0c.43-.2.38.47-.19-.23l.53-1.28c-.61.07-1.24.08-1.85.11l-1.18.05c-.14,0-.88,0-.53.06l-.2,1.47c.67-.08,1.37-.09,2-.12C1242.86,629.42,1242.87,627.92,1241.9,628Z"/><path class="cls-2" d="M1030.4,396.23l-13-6c-8.67-18.05-22.35-43.78-37.73-56.6-8.28-6.9-17.65-13.2-22.6-22.77-1.67-3.23-2.76-6.73-4.28-10-9.08-19.76-31.08-29.35-48.19-42.78-18.22-14.3-31.52-33.8-44.52-53a64.54,64.54,0,0,1-5-8.27c5.3,6.84,12.51,12,19.56,17.07Q925.42,250.33,973,291c22.8,19.49,45,39.69,68.67,58.15,17.92,14,36.72,27,52.6,43.27,4.2,4.3,8.3,9,10,14.78s.36,12.82-4.6,16.21c-4.57,3.13-10.74,2.37-16,.62-8-2.68-15.17-7.32-22.25-11.92-10.4-6.75-14.62-6.14-25-12.89Z"/><path class="cls-4" d="M1030.78,395.58l-12-5.55a3.73,3.73,0,0,1-.81-.37c-.23-.19-.27-.56-.5-1q-1.38-2.86-2.81-5.71-3.09-6.17-6.43-12.22a192.93,192.93,0,0,0-15.32-23.91,97.47,97.47,0,0,0-8.52-9.86,126.34,126.34,0,0,0-10.12-8.64,95,95,0,0,1-10.71-9.63,40.48,40.48,0,0,1-7.78-12.57,63,63,0,0,0-6.26-12.54,59.81,59.81,0,0,0-8.17-9.45c-6.34-6-13.63-10.92-20.87-15.78-7.71-5.17-15.36-10.38-22.23-16.66-15.23-13.93-27-31.25-38.41-48.31a58.34,58.34,0,0,1-4.11-6.94l-1.18.91c4.16,5.31,9.38,9.61,14.78,13.6,5.86,4.35,11.84,8.55,17.73,12.88q18.06,13.26,35.73,27.09c23.5,18.39,46.29,37.6,68.8,57.18,11.31,9.85,22.62,19.7,34.19,29.25,11.09,9.16,22.53,17.85,34,26.58,11.25,8.6,22.38,17.43,32.42,27.44,4.69,4.69,9.71,9.82,11.5,16.4,1.45,5.32.29,12.11-4.67,15.25-5.58,3.53-12.87,1.37-18.47-.94-6.64-2.73-12.68-6.7-18.69-10.57a105.82,105.82,0,0,0-15.17-7.59c-4.29-1.88-8.14-4.45-12.31-6.54l-3.55-1.77c-.86-.43-1.62.86-.76,1.29l3.76,1.88c1.74.87,3.33,1.85,5,2.83,4.8,2.83,10,4.65,15,7.08,6.31,3.06,11.92,7.36,18,10.79,5.66,3.18,12,6.23,18.51,6.79,5.84.49,11.52-1.82,14-7.38,2.35-5.29,1.47-11.26-1.16-16.26-3.1-5.87-8.16-10.63-12.9-15.17-5.25-5-10.76-9.76-16.4-14.33-11.37-9.21-23.23-17.78-34.71-26.85-12-9.45-23.56-19.33-35.09-29.3-23.12-20-46.17-40.05-70.09-59.11q-17.68-14.08-35.8-27.64-9.2-6.88-18.52-13.63c-5.84-4.23-11.87-8.27-17.25-13.09a56.8,56.8,0,0,1-6.82-7.22c-.55-.71-1.52.2-1.17.91,2.35,4.83,5.62,9.2,8.65,13.63s5.89,8.57,8.94,12.78A213.73,213.73,0,0,0,891.33,247a144.15,144.15,0,0,0,22.18,18.39c7.31,5,14.85,9.71,21.72,15.31s12.81,11.9,16.6,19.79c2.23,4.65,3.63,9.62,6.51,14a53.14,53.14,0,0,0,9.3,10.23c3.62,3.2,7.47,6.11,11.19,9.19a75.92,75.92,0,0,1,9.06,9.05A157.62,157.62,0,0,1,1004,366.23c2.39,4.09,4.66,8.25,6.85,12.45,2,3.84,3.79,7.8,5.81,11.62.34.65.82.76,1.46,1.06l3.12,1.44,7.36,3.39,1.47.68C1030.89,397.27,1031.66,396,1030.78,395.58Z"/><path class="cls-1" d="M372.51,401.39c-.11-13,8.17-24.87,18.46-32.83s22.57-12.83,34.28-18.5c35.29-17.09,66.18-41.85,98.18-64.5,6.59-4.66,13.45-9.34,21.32-11.15,6.49-1.5,13.26-1,19.87-.12a250.27,250.27,0,0,1,90.16,29.39c2.44,1.35,5,2.93,6.07,5.51,2.41,6-4.62,11.22-10.54,13.76-86.87,37.26-182.1,50.29-271.62,80.66Z"/><path class="cls-2" d="M1474.4,723.23c-2.84,5.81-6.15,8.91-12.58,9.76s-12.92-.53-19.17-2.22c-32.49-8.73-54.25-25-78.25-48.55-5.22-5.12-65.85-50.44-72.5-53.49,36,49,90.26,92.51,116.9,110.34,13.79,9.23,29.88,11.7,46.44,12.93,4.82.35,10.81-1.66,15.16-3.77,10.22-5,9.88-17.94,9-27Z"/><path class="cls-4" d="M1473.75,722.85c-1.89,3.81-4.42,7.21-8.59,8.62-5.47,1.84-11.72,1-17.23-.17a141.07,141.07,0,0,1-29.44-10c-17.72-8.25-33.16-20.26-47.33-33.58-3.43-3.23-6.68-6.53-10.36-9.47s-7.71-6.05-11.6-9q-16-12.21-32.25-24.06c-4.79-3.49-9.59-7-14.44-10.36-3-2.1-6-4.25-9.12-6.09a9.93,9.93,0,0,0-1.11-.6c-.6-.28-1.52.35-1,1a404.31,404.31,0,0,0,37.47,43.52c12.7,12.92,26.08,25.18,40,36.83,11,9.18,22.21,18,33.9,26.26,2.46,1.73,4.93,3.47,7.48,5.07a66.24,66.24,0,0,0,12.83,6.12c9.14,3.26,18.81,4.68,28.44,5.53a37.22,37.22,0,0,0,7,.26,31.17,31.17,0,0,0,6.68-1.48c3.74-1.22,7.65-2.78,10.37-5.73,4.74-5.14,5.39-12.69,5.12-19.35-.06-1.64-.19-3.27-.35-4.9,0-.43-.45-.93-1-.73l-5,2c-.88.36-.5,1.81.4,1.45l5-2-.95-.72c.63,6.58,1,14-2.14,20a15.48,15.48,0,0,1-7.87,6.94c-4.15,1.85-8.82,3.31-13.4,3a125.29,125.29,0,0,1-28.54-4.67,67.92,67.92,0,0,1-13.09-5.46,99.31,99.31,0,0,1-8.44-5.43c-11.21-7.78-22-16.17-32.51-24.87q-20.07-16.62-38.61-35a424.06,424.06,0,0,1-37.37-42c-1.39-1.82-2.77-3.66-4.13-5.5l-1,1a54.86,54.86,0,0,1,7.63,4.88c4.63,3.19,9.19,6.47,13.74,9.77q16.59,12,32.9,24.45c4.24,3.22,8.47,6.46,12.65,9.77,3.18,2.52,6.06,5.16,9,8,14.18,13.6,29.54,26.12,47.23,34.87a150.35,150.35,0,0,0,28.24,10.53c5.83,1.55,11.91,2.82,18,2.22,4.15-.4,8-1.8,10.82-5a24,24,0,0,0,3.35-5.24C1475.48,722.74,1474.18,722,1473.75,722.85Z"/><path class="cls-2" d="M1380.35,582.5A373.08,373.08,0,0,1,1433.42,694c3.11,10.93,5.32,23.92-2,32.61,7.48,9.9,24.6,7.31,32-2.68s6.73-24,2.51-35.65c-5.1-14.11-14.76-26.36-18.77-40.82-2.6-9.39-2.71-19.39-5.83-28.62-3.61-10.68-11-19.63-15.76-29.85-6.78-14.61-8.54-32.34-20.32-43.32q-11.74,19.26-24.28,38"/><path class="cls-4" d="M1379.71,582.88a374,374,0,0,1,31.75,54.75,345.92,345.92,0,0,1,21.84,58.78c2.53,9.55,4.43,21.4-2.42,29.67a.76.76,0,0,0-.11.9c7.66,9.92,23.38,7.79,31.43-.49,5-5.15,7.24-12.52,7.54-19.56.33-7.76-1.57-15.41-4.56-22.53-3.23-7.7-7.56-14.86-11.31-22.3a88.64,88.64,0,0,1-5.07-11.77,80.32,80.32,0,0,1-3-13.07c-.71-4.44-1.29-8.89-2.3-13.27a55.89,55.89,0,0,0-4.3-12.1c-3.72-7.61-8.75-14.5-12.46-22.11-6.45-13.23-8.09-28.85-17.36-40.66a36.09,36.09,0,0,0-3.64-4,.76.76,0,0,0-1.18.16q-11.74,19.25-24.28,38c-.54.81.76,1.56,1.3.76q12.53-18.74,24.28-38l-1.18.15c10.58,10,13,25.08,18.07,38.09,2.85,7.37,7,14,11,20.76a87.36,87.36,0,0,1,5.68,11,59.82,59.82,0,0,1,3.42,12.24c1.53,8.4,2.31,16.86,5.36,24.89,2.82,7.43,6.8,14.32,10.5,21.32,7,13.18,13.51,29.39,7,44.1A22.26,22.26,0,0,1,1452,731c-5.47,1.75-11.85,1.61-16.71-1.7a14.44,14.44,0,0,1-3.23-3.06l-.11.91c5.91-7.15,5.78-16.77,4.11-25.43a139.36,139.36,0,0,0-3.81-14.33q-2.4-7.89-5.16-15.68a375.34,375.34,0,0,0-26.62-58.62q-9-15.95-19.47-31c-.55-.79-1.85,0-1.29.76Z"/><path class="cls-6" d="M1405.18,518.52c22.24,57.25,48.24,116,67.72,174.21,4.51,13.48,8.11,22.82,7,37-.2,2.54-5.41,8.33-7.43,9.9s-9.59,4-14.07,3.6c-22.68-1.88-40.09-13.84-59-26.57C1364,692.75,1313.34,644,1278.9,618.73c19-13,52.23,29.12,62,38,19.54,17.74,35.81,32.71,58,47,16,10.28,26.89,21.66,45.76,24,4.84.6,10.58.26,13.42-3.71,1.91-2.66,1.92-6.2,1.69-9.47-2.07-29.42-15.83-62.91-27.87-89.83s-21-50-35-79c-4.41-9.14,1.62-18.68,7.46-27"/><path class="cls-4" d="M1404.46,518.72c6.49,16.71,13.21,33.33,20,49.93,6.83,16.78,13.68,33.55,20.37,50.38s13.09,33.44,19.19,50.33c3,8.41,5.94,16.87,8.79,25.34,2.45,7.27,5,14.59,6.07,22.23a59.61,59.61,0,0,1,.36,12.09c-.17,2.63-2.33,5-4,6.84a14.84,14.84,0,0,1-5.37,4.33,29.64,29.64,0,0,1-9.3,2.28c-3.69.25-7.58-.56-11.17-1.33a80.06,80.06,0,0,1-10.85-3.13,119.48,119.48,0,0,1-20.71-10.26,379,379,0,0,1-34.06-23.41c-11.21-8.61-22.07-17.67-32.85-26.81-11.27-9.56-22.45-19.24-33.71-28.82-10.21-8.68-20.48-17.31-31.1-25.5-2.25-1.74-4.51-3.45-6.8-5.13v1.29c7.73-5.2,17.31-.74,24.24,3.72,9.1,5.85,17,13.59,24.45,21.34,3,3.16,6,6.39,9.09,9.55,3.91,4,8.19,7.72,12.36,11.48,12.17,11,24.57,21.77,37.92,31.32,6.7,4.79,13.7,9.13,20.4,13.91,6,4.26,11.9,8.66,18.44,12,9.16,4.7,33.58,12.8,34.42-4.56a64.81,64.81,0,0,0-.91-11.55c-.53-4-1.24-8-2.08-11.93a230.42,230.42,0,0,0-6.75-24.45,495.56,495.56,0,0,0-18.4-46.07c-6.76-15.13-13.13-30.43-19.75-45.62-3.47-7.95-7-15.87-10.68-23.73-1-2.11-2-4.22-3-6.33a29.64,29.64,0,0,1-2.61-6.37c-.88-4.15.25-8.42,2-12.19a70.52,70.52,0,0,1,6.57-10.76c.55-.79-.75-1.54-1.3-.75-4.46,6.33-9.73,13.9-9,22.06.38,4.27,2.73,8,4.52,11.85q2.85,6,5.61,12.13c6.82,15.05,13.2,30.3,19.76,45.46s13.63,30.4,19.57,46,11.13,31.68,13.68,48.22a101.61,101.61,0,0,1,1.27,12.07c.13,3.83-.63,7.79-4.31,9.73-3,1.61-6.81,1.52-10.13,1.11a51.28,51.28,0,0,1-11.32-2.76c-6.9-2.53-13.1-6.53-19.07-10.73-3.1-2.17-6.15-4.4-9.25-6.56-3.39-2.37-6.89-4.57-10.33-6.88-13.68-9.2-26.37-19.72-38.67-30.68-5.34-4.76-10.84-9.45-15.94-14.47-2.76-2.72-5.38-5.59-8-8.4-7.34-7.72-14.89-15.37-23.46-21.73-6.82-5.06-15.9-10.79-24.82-8.94a14.86,14.86,0,0,0-5.24,2.24.76.76,0,0,0,0,1.29c10.56,7.77,20.67,16.13,30.7,24.56,11.43,9.62,22.72,19.41,34.08,29.11,11.07,9.45,22.19,18.84,33.62,27.86,10.65,8.41,21.66,16.26,33,23.67,12.93,8.42,26.7,16,42.1,18.61a33.66,33.66,0,0,0,10.35.59,32,32,0,0,0,8.77-2.54,16.38,16.38,0,0,0,5.2-4.43c1.59-1.82,3.67-4.09,4.2-6.53a26.3,26.3,0,0,0,.28-5.54q0-3-.28-5.89a69.31,69.31,0,0,0-2.06-11c-2.16-8.1-5.08-16-7.81-24-5.93-17.21-12.32-34.27-18.94-51.23-6.66-17.11-13.56-34.13-20.48-51.14s-13.83-33.93-20.57-51q-2.42-6.12-4.8-12.26c-.35-.89-1.8-.5-1.45.4Z"/><path class="cls-2" d="M549.74,134.11c9.71,4.28,20.66,4.95,30.87,7.87,8.08,2.31,16.23,4.87,23.21,9.55a16,16,0,0,1,5.39,5.33c1.53,2.82,1.57,6.19,1.57,9.4l0,30.9c0,12.32.36,25.74,8.23,35.21,3.3,4,7.65,6.89,11.88,9.85a331.46,331.46,0,0,1,36.23,29.36c2.56,2.39,5.29,5.93,3.63,9-26.72-10.4-53.52-20.82-81.32-27.86-12.43-3.15-25.21-5.68-36.59-11.61-17.48-9.11-30.24-25.52-47.57-34.91-12.6-6.84-26.93-9.6-40.88-12.91-5.32-1.27-11.88-4.24-11.46-9.7.33-4.31,5-6.8,9.12-8.06,16.09-4.93,33.31-3.73,50.1-4.91,3.16-.22,6.45-.57,9.14-2.24,5.41-3.34,6.59-10.63,6.62-17s-.4-13.29,3.35-18.42C531.23,133,538.17,129,549.74,134.11Z"/><path class="cls-2" d="M1012.4,387.23c-3.76-2.74-6.6-10.83-10-14-1.81-1.7-11.32-11.18-13-13-16.61-12.7-22.51-17.37-39.12-30.07-8.37-6.4-16.89-12.88-26.72-16.67-10.91-4.21-22.82-4.87-34.5-5.48-21.88-1.13-44-2.18-66.2-2.84,34.2,9.24,67.25,21.92,100.54,37.06C950,354.31,980.73,375.32,1012.4,387.23Z"/><path class="cls-4" d="M1012.78,386.58c-2.29-1.74-3.72-4.59-5.13-7a30.26,30.26,0,0,0-4.72-6.85q-4.59-4.47-9.09-9c-1.27-1.28-2.49-2.64-3.81-3.89a53.39,53.39,0,0,0-4.37-3.37l-4.35-3.35q-7.51-5.76-15-11.56-8.59-6.63-17.23-13.22c-6.25-4.77-12.61-9.48-19.66-13-14.7-7.39-31.38-7.55-47.47-8.37-17.53-.89-35.07-1.7-52.62-2.28l-6.46-.2a.75.75,0,0,0-.2,1.47,621,621,0,0,1,79.52,27.83c12.14,5.13,24.21,10.45,35.87,16.59,11.33,6,22.43,12.37,33.68,18.48,13.13,7.11,26.49,13.88,40.47,19.16.91.34,1.3-1.11.4-1.45-24.72-9.32-47.27-23.28-70.47-35.72-11.47-6.15-23.26-11.53-35.2-16.66-12.8-5.49-25.74-10.66-38.83-15.4-14.82-5.36-29.83-10.16-45-14.28l-.2,1.48c17.41.52,34.81,1.27,52.2,2.13,8.37.42,16.75.71,25.09,1.41,8.18.69,16.39,2,24,5.08,7.31,2.95,13.9,7.42,20.2,12.1,6,4.48,12,9.1,17.92,13.69q7.31,5.61,14.6,11.25c4.73,3.64,9.8,7,14,11.27q4.88,5,9.85,9.82a25.44,25.44,0,0,1,4,4.93,86.88,86.88,0,0,0,4.8,7.75,12.77,12.77,0,0,0,2.46,2.52C1012.79,388.46,1013.54,387.15,1012.78,386.58Z"/><path class="cls-6" d="M1405.42,402.41c-7.59-28.59-27.47-50.32-49.73-68.87a421.83,421.83,0,0,0-117.35-69.11c-24.54-9.51-49.93-16.71-74.55-26-24.85-9.4-48.83-20.93-73.33-31.22A786.9,786.9,0,0,0,967.2,167c-30.85-7.31-78.18-23.8-105.21.7-6.19,5.61-11.1,13.59-10.12,21.88a23,23,0,0,0,2.2,7.19c5.3,6.84,12.51,12,19.56,17.07Q924.42,250.33,972,291c22.8,19.49,45,39.69,68.67,58.15,17.92,14,36.72,27,52.6,43.27,4.2,4.3,8.3,9,10,14.78s.36,12.82-4.6,16.21c-4.57,3.13-10.74,2.37-16,.62-8-2.68-15.17-7.32-22.25-11.92-10.4-6.75-12-6.89-25-12.89-5.14-2.38-15-7-24-12-28-14-62.41-32.92-89-45-33.29-15.14-66.34-27.82-100.54-37.06-75.21-2.25-151.5-.08-223.46,18.06-2.53.63-10,3-10,3-90,24-83.93,20.72-169,43-42,11-75.89,23-87.4,26-12.92,3.34-25.52,7.82-38.09,12.29-71.13,25.31-143.45,47.24-204,92.33-13.34,9.93-27.12,22.89-27.38,39.52C62.31,553,81.39,567.7,93.4,574.23c35,19,49,21,103,27,40.35,4.48,81.59-3.89,121.84-9.16,18.93-2.48,38.09-4.59,56-10.72s36-9.84,55.11-9.21c9.48.31,18.91,1.57,28.39,2.06,14.61.76,29.24-.32,43.83-1.39l59.07-4.37c16.58-1.22,33.16-2.45,49.7-4.16q25.57-2.65,51-6.87c11.08-1.84,22.68-4.16,31.26-11.42s12.76-18.22,17.2-28.51a303.76,303.76,0,0,1,25-46.29c1.65-2.52,3.46-5.11,6.17-6.42,4.57-2.2,10.09,0,14.08,3.17,14.17,11.14,16.92,31,22.24,48.22,7.65,24.72,23.53,47.81,46.67,59.4,35.88,18,75.68,2.18,112.13,12.87,37,10.88,72.27,25.58,110.37,33.8,73,15.73,147.69,19,222,22.11,20.34.84,41.28,1,60.33-6.12,18.43-6.93,33.73-20.27,47.26-34.59,13.14-13.9,25.25-29.36,31.53-47.43,6.09-17.54,6.35-36.5,6.55-55.07C1414.49,467.92,1414,434.73,1405.42,402.41Z"/><path class="cls-4" d="M1406.15,402.21c-7.72-27.77-26.7-49.56-48.31-67.84a419.33,419.33,0,0,0-78.28-52.19c-29.73-15.36-61.16-25.71-92.77-36.4-33.71-11.41-65.67-26.65-98.48-40.3a784.53,784.53,0,0,0-98.7-33.58c-26-7-53.29-15.57-80.25-17.55-20.76-1.52-50.32,3.53-57.4,26.94-3.85,12.74,4.95,20.9,14.27,28.06,13.76,10.57,28.08,20.44,41.88,31,28.42,21.69,55.84,44.57,82.8,68,13.58,11.82,27.16,23.64,41.17,34.94,13.11,10.56,26.81,20.36,39.87,31,6,4.86,11.82,9.89,17.34,15.25,6.94,6.75,16.25,15.76,13.46,26.49-5.81,22.26-38-2.49-48.09-8.37s-21.06-9.9-31.42-15.06c-14-7-27.87-14.34-41.77-21.57-28.7-14.93-57.42-29.56-87.38-41.86-15.7-6.44-31.62-12.35-47.78-17.53-7.68-2.47-16.25-6.12-24.25-7.18-8.4-1.11-17.41-.48-25.88-.6-35.48-.52-71,.22-106.39,3.48-32.33,3-65.66,7.23-96.8,16.7-40.82,12.41-82.77,21.39-124.15,31.74-52.08,13-104,27.35-155,44.07-31.56,10.34-63,21.65-94.11,33.22-29.52,11-58.72,23.06-86.37,38.21a376.1,376.1,0,0,0-41.89,26.51c-10.64,7.82-21.84,16.88-27,29.42-9.63,23.2,13.84,39.83,31.86,49.42,18.35,9.76,37,16.6,57.56,20,30.37,5,61.09,8.06,91.84,5.58,17.47-1.42,34.82-4,52.16-6.5,16.73-2.41,33.59-4.16,50.24-7.08,17.07-3,33.05-9.57,50-13,18.4-3.7,36-2.34,54.57-1,17.71,1.3,35.36-.06,53-1.36l55-4.07c35.11-2.59,70.35-5.39,105-11.78,12.72-2.34,25-6.28,33.1-16.95,9.09-11.92,13.4-27.48,20.21-40.74q5.73-11.16,12.36-21.82c2.08-3.35,4.3-7.8,7.24-10.5,6.19-5.68,13.87-1.16,18.76,3.58,10.43,10.12,13.54,25.35,17.28,38.82,7,25.26,20.56,49.53,43.57,63.45,27,16.34,58.32,11.16,88.27,11.89,17.89.44,34.08,5.23,51,10.76,16.65,5.46,33.17,11.32,49.89,16.55,33,10.34,67,16.65,101.28,21.15,36.06,4.74,72.35,7.32,108.65,9.19q26.82,1.38,53.64,2.4c16.28.61,32.91.72,48.81-3.35,29-7.44,52.52-30.28,70.44-53.34,9.08-11.69,16.48-24.64,20.25-39,4.13-15.74,4.31-32.18,4.48-48.34.35-33.22-.36-66.58-8.73-98.92a.75.75,0,0,0-1.45.4c8.85,34.16,9.15,69.53,8.61,104.59-.27,17.18-1.11,34.72-7.24,51-5.91,15.69-16.2,29.3-27.42,41.58-10.66,11.67-22.33,22.86-36,31-15.23,9-32.13,12.51-49.66,13.17-16.89.64-33.9-.64-50.78-1.39-17.51-.77-35-1.64-52.51-2.76-36.2-2.32-72.37-5.71-108.17-11.6-34.25-5.64-67.1-14.6-100-25.69-15.73-5.31-31.46-11.15-47.54-15.33-14.29-3.72-29.11-3.69-43.77-3.36-16.1.36-32.44,1.12-48.26-2.53A79.6,79.6,0,0,1,801.9,558a106.35,106.35,0,0,1-22.63-38.18c-4.2-12.13-6.23-25-11.73-36.68-4-8.39-11.71-19.65-22.1-20-4-.13-6.74,1.71-9.21,4.65-5.49,6.54-9.66,14.84-13.79,22.27-7.64,13.75-12.84,28.65-20.35,42.39-8.48,15.5-22.25,20.94-38.88,23.83-34.82,6.06-70,9-105.21,11.56s-71.4,7.9-106.68,5.13c-16.08-1.27-31.68-2.49-47.71.07-16.66,2.66-32.18,9.23-48.64,12.66s-33.2,5-49.8,7.36c-18.08,2.57-36.13,5.41-54.32,7.1-31.9,3-63.45.22-95-4.8a182.57,182.57,0,0,1-57.26-19.27c-11.81-6.21-24.55-14-31.66-25.74-9.34-15.33,2.22-31.62,13.66-42,23.13-21,52.68-36.47,80.79-49.64,29.24-13.7,59.6-24.81,90-35.52C304,404.72,356.93,387,410.73,372.32c41.12-11.19,82.63-20.78,123.92-31.27,24.64-6.26,49-13.76,73.79-19.48,34.26-7.91,69.24-12.31,104.3-14.52,34.42-2.16,69.54-3.22,104-1.28,8.77.49,17.22,3.53,25.57,6.15s16.86,5.5,25.2,8.53c16.84,6.13,33.42,13,49.77,20.28,27.92,12.5,54.77,27.22,82,41.17,12.59,6.46,25.08,13.09,38,19,11.19,5.11,21.06,11.2,31.64,17.42,8.31,4.89,23,12.89,31.74,4.54,7.69-7.34,3.37-18.88-2.22-25.89-9.89-12.39-23.4-22.41-35.87-32-13.19-10.17-26.48-20.17-39.29-30.83-26.28-21.89-51.58-44.9-78.11-66.5q-18.87-15.37-38.25-30.11c-13.93-10.6-28.7-20.29-42.27-31.34-7.05-5.74-13.65-12.57-11.68-22.47,1.72-8.61,8.7-15.64,15.89-20.14,11.48-7.18,25.43-8.58,38.68-7.8,26.64,1.55,53.6,10.16,79.29,17A787.76,787.76,0,0,1,1083.21,205c31.68,12.94,62.39,28.07,94.75,39.35,32.69,11.4,65.59,21.42,96.64,37a419.65,419.65,0,0,1,80.56,52.74c22,18.42,41.69,40.28,49.54,68.54A.75.75,0,0,0,1406.15,402.21Z"/><path class="cls-2" d="M910.9,171.73c24.72,3,48.15,17.46,63.74,36.87,13.8,17.18,19.63,40.44,36.24,54.93,22.29,19.43,55.65,16.63,84,25.14,27.92,8.38,51.25,28.26,69,51.42s30.4,49.67,43.14,75.89c3.33,6.84-.21,20.18,7,22.75,8.93,3.19,26.64-9.15,30.49-17.82s2.81-18.69.74-27.94c-9.31-41.59-39.28-78-78.29-95.15-16.44-7.22-34-13.14-50.94-19.09-26.11-9.18-62.88-22.44-87-36-16-9-26.38-12.93-33-46-1-5,0-17,5-22-4-1-29.72-6.77-33.7-7.71-30.85-7.31-78.18-23.8-105.21.7-3,2.75-8.21,12.35-10.09,16C872.9,160.73,892.59,169.53,910.9,171.73Z"/><path class="cls-4" d="M1406.15,402.21c-7.72-27.77-26.7-49.56-48.31-67.84a419.33,419.33,0,0,0-78.28-52.19c-29.73-15.36-61.16-25.71-92.77-36.4-33.71-11.41-65.67-26.65-98.48-40.3a784.53,784.53,0,0,0-98.7-33.58c-26-7-53.29-15.57-80.25-17.55-20.76-1.52-50.32,3.53-57.4,26.94-3.85,12.74,4.95,20.9,14.27,28.06,13.76,10.57,28.08,20.44,41.88,31,28.42,21.69,55.84,44.57,82.8,68,13.58,11.82,27.16,23.64,41.17,34.94,13.11,10.56,26.81,20.36,39.87,31,6,4.86,11.82,9.89,17.34,15.25,6.94,6.75,16.25,15.76,13.46,26.49-5.81,22.26-38-2.49-48.09-8.37s-21.06-9.9-31.42-15.06c-14-7-27.87-14.34-41.77-21.57-28.7-14.93-57.42-29.56-87.38-41.86-15.7-6.44-31.62-12.35-47.78-17.53-7.68-2.47-16.25-6.12-24.25-7.18-8.4-1.11-17.41-.48-25.88-.6-35.48-.52-71,.22-106.39,3.48-32.33,3-65.66,7.23-96.8,16.7-40.82,12.41-82.77,21.39-124.15,31.74-52.08,13-104,27.35-155,44.07-31.56,10.34-63,21.65-94.11,33.22-29.52,11-58.72,23.06-86.37,38.21a376.1,376.1,0,0,0-41.89,26.51c-10.64,7.82-21.84,16.88-27,29.42-9.63,23.2,13.84,39.83,31.86,49.42,18.35,9.76,37,16.6,57.56,20,30.37,5,61.09,8.06,91.84,5.58,17.47-1.42,34.82-4,52.16-6.5,16.73-2.41,33.59-4.16,50.24-7.08,17.07-3,33.05-9.57,50-13,18.4-3.7,36-2.34,54.57-1,17.71,1.3,35.36-.06,53-1.36l55-4.07c35.11-2.59,70.35-5.39,105-11.78,12.72-2.34,25-6.28,33.1-16.95,9.09-11.92,13.4-27.48,20.21-40.74q5.73-11.16,12.36-21.82c2.08-3.35,4.3-7.8,7.24-10.5,6.19-5.68,13.87-1.16,18.76,3.58,10.43,10.12,13.54,25.35,17.28,38.82,7,25.26,20.56,49.53,43.57,63.45,27,16.34,58.32,11.16,88.27,11.89,17.89.44,34.08,5.23,51,10.76,16.65,5.46,33.17,11.32,49.89,16.55,33,10.34,67,16.65,101.28,21.15,36.06,4.74,72.35,7.32,108.65,9.19q26.82,1.38,53.64,2.4c16.28.61,32.91.72,48.81-3.35,29-7.44,52.52-30.28,70.44-53.34,9.08-11.69,16.48-24.64,20.25-39,4.13-15.74,4.31-32.18,4.48-48.34.35-33.22-.36-66.58-8.73-98.92a.75.75,0,0,0-1.45.4c8.85,34.16,9.15,69.53,8.61,104.59-.27,17.18-1.11,34.72-7.24,51-5.91,15.69-16.2,29.3-27.42,41.58-10.66,11.67-22.33,22.86-36,31-15.23,9-32.13,12.51-49.66,13.17-16.89.64-33.9-.64-50.78-1.39-17.51-.77-35-1.64-52.51-2.76-36.2-2.32-72.37-5.71-108.17-11.6-34.25-5.64-67.1-14.6-100-25.69-15.73-5.31-31.46-11.15-47.54-15.33-14.29-3.72-29.11-3.69-43.77-3.36-16.1.36-32.44,1.12-48.26-2.53A79.6,79.6,0,0,1,801.9,558a106.35,106.35,0,0,1-22.63-38.18c-4.2-12.13-6.23-25-11.73-36.68-4-8.39-11.71-19.65-22.1-20-4-.13-6.74,1.71-9.21,4.65-5.49,6.54-9.66,14.84-13.79,22.27-7.64,13.75-12.84,28.65-20.35,42.39-8.48,15.5-22.25,20.94-38.88,23.83-34.82,6.06-70,9-105.21,11.56s-71.4,7.9-106.68,5.13c-16.08-1.27-31.68-2.49-47.71.07-16.66,2.66-32.18,9.23-48.64,12.66s-33.2,5-49.8,7.36c-18.08,2.57-36.13,5.41-54.32,7.1-31.9,3-63.45.22-95-4.8a182.57,182.57,0,0,1-57.26-19.27c-11.81-6.21-24.55-14-31.66-25.74-9.34-15.33,2.22-31.62,13.66-42,23.13-21,52.68-36.47,80.79-49.64,29.24-13.7,59.6-24.81,90-35.52C304,404.72,356.93,387,410.73,372.32c41.12-11.19,82.63-20.78,123.92-31.27,24.64-6.26,49-13.76,73.79-19.48,34.26-7.91,69.24-12.31,104.3-14.52,34.42-2.16,69.54-3.22,104-1.28,8.77.49,17.22,3.53,25.57,6.15s16.86,5.5,25.2,8.53c16.84,6.13,33.42,13,49.77,20.28,27.92,12.5,54.77,27.22,82,41.17,12.59,6.46,25.08,13.09,38,19,11.19,5.11,21.06,11.2,31.64,17.42,8.31,4.89,23,12.89,31.74,4.54,7.69-7.34,3.37-18.88-2.22-25.89-9.89-12.39-23.4-22.41-35.87-32-13.19-10.17-26.48-20.17-39.29-30.83-26.28-21.89-51.58-44.9-78.11-66.5q-18.87-15.37-38.25-30.11c-13.93-10.6-28.7-20.29-42.27-31.34-7.05-5.74-13.65-12.57-11.68-22.47,1.72-8.61,8.7-15.64,15.89-20.14,11.48-7.18,25.43-8.58,38.68-7.8,26.64,1.55,53.6,10.16,79.29,17A787.76,787.76,0,0,1,1083.21,205c31.68,12.94,62.39,28.07,94.75,39.35,32.69,11.4,65.59,21.42,96.64,37a419.65,419.65,0,0,1,80.56,52.74c22,18.42,41.69,40.28,49.54,68.54A.75.75,0,0,0,1406.15,402.21Z"/><path class="cls-1" d="M694.83,40.53c-12.93-6-21.54-3.7-35.38-.4-6.67,1.59-13,4.23-19.36,6.87-27.85,11.58-56,23.36-80.48,40.92,17.62,10.19,31.82,26.23,48.89,36.94a18.57,18.57,0,0,1,4.19-.37c9,.23,13.94,2.35,25.06-2.37,9.64-4.09,62.75-33.39,87.47-53.88,0,0,7.06-5.76,7.93-7.34a3.6,3.6,0,0,0,.35-1C722.29,51.87,705.92,45.64,694.83,40.53Z"/><path class="cls-1" d="M473.75,89c-8.34-3.84-17.66-5-26.82-5.44a165.1,165.1,0,0,0-42.51,2.94c-28.94,6.09-55,21.34-81.55,34.31a297.35,297.35,0,0,1-27.56,12c26.9,12.32,67.9,27.39,51.05,41-20.42,16.5-6.65,25.84-6.65,25.84s38.71,12,59,1.49,30.52-20.24,30.52-20.24,5.12-4.87,5.37-14.87,13.08-2.67,13.08-2.67,21.81,7.55,44.06-1.89c7-3,11.64-5.92,14.63-8.93,5.53-5.55,5.49-11.33,4.64-18-4-7.64-8.78-15.24-10.94-23.38C492.33,102.53,484.23,93.85,473.75,89Z"/><path class="cls-5" d="M404.42,86.53a165.1,165.1,0,0,1,42.51-2.94c9.16.47,18.48,1.6,26.82,5.44,10.48,4.82,18.58,13.5,26.3,22.11a34.38,34.38,0,0,1-1-5.43c-.78-7.76,1.31-16.15-2.36-23a22.85,22.85,0,0,0-6.52-7.12c-8.95-6.8-20.26-10-31.48-10.77s-22.46.66-33.59,2.3c-11.3,1.66-22.62,3.55-33.54,6.89-25.48,7.79-47.84,23.15-71.81,34.76a258.6,258.6,0,0,1-40.5,15.57,18,18,0,0,0,1.54,1.08,140,140,0,0,0,14.52,7.42,297.35,297.35,0,0,0,27.56-12C349.45,107.87,375.48,92.62,404.42,86.53Z"/><path class="cls-4" d="M295.31,133.56a.67.67,0,0,1-.31-.07A134.47,134.47,0,0,1,280.4,126c-.55-.34-1.07-.7-1.61-1.11a.76.76,0,0,1-.28-.73.78.78,0,0,1,.53-.59,259,259,0,0,0,40.38-15.52c8-3.86,15.9-8.21,23.57-12.42,15.38-8.44,31.29-17.17,48.35-22.39,11.37-3.48,23.33-5.39,33.65-6.92,10.87-1.6,22.42-3.1,33.76-2.3,12.62.9,23.64,4.67,31.88,10.93a22.92,22.92,0,0,1,6.72,7.36c2.54,4.77,2.42,10.24,2.31,15.54a64.7,64.7,0,0,0,.13,7.76,33.39,33.39,0,0,0,1,5.32.76.76,0,0,1-.37.85.75.75,0,0,1-.92-.16c-8.32-9.27-16-17.31-26.06-21.93-8.63-4-18.26-4.94-26.54-5.37a164.93,164.93,0,0,0-42.31,2.92c-23.25,4.9-45,15.9-66,26.54-5.05,2.55-10.27,5.2-15.42,7.71a292.25,292.25,0,0,1-27.63,12A.58.58,0,0,1,295.31,133.56Zm-14.36-9,.24.15A133.57,133.57,0,0,0,295.34,132a294.92,294.92,0,0,0,27.2-11.83c5.14-2.51,10.36-5.16,15.4-7.71,21.09-10.68,42.89-21.73,66.33-26.67l.15.74-.15-.74a166.13,166.13,0,0,1,42.7-3c8.42.44,18.23,1.43,27.09,5.51,9.51,4.37,16.91,11.67,24.63,20.16q-.26-1.38-.39-2.73a65.93,65.93,0,0,1-.14-8c.11-5.33.22-10.37-2.13-14.79a21.59,21.59,0,0,0-6.31-6.88c-8-6.08-18.75-9.75-31.08-10.62-11.18-.79-22.65.7-33.43,2.29-10.26,1.51-22.16,3.42-33.43,6.86C374.86,79.87,359,88.56,343.71,97c-7.68,4.22-15.63,8.58-23.64,12.46A261.8,261.8,0,0,1,281,124.6Z"/><path class="cls-2" d="M311.4,412.23c14.87-2.2,21.76,7.63,37.13,12.89,9.87,3.38,20.52,3.46,31,3.53,90.07.63,180.5,3.13,269.31,18.2,5.92,1,12.16,2.22,16.66,6.2,9.58,8.48,6,24.77-2.23,34.52-16.27,19.18-43.8,23.26-68.79,26L352,540.63c-75.54,8.42-152,16.84-227.31,6.78-12.31-1.64-26.55-5.27-31.29-16.75-3.67-8.88.21-19.44,6.94-26.3s17.17-14,25.62-18.62c43.42-23.51,86.42-39.51,172.42-70.51C298.4,415.23,308.1,412.71,311.4,412.23Z"/><path class="cls-1" d="M331.4,405.23c1-3,8.05-5.17,11-6,17.87-5.07,39.62-11.27,63-18,59-17,102.62-25.87,161-41,27-7,55.35-15.23,90-21,6-1,18-1.62,23,2.46,4.39,3.61,6.83,9,8.79,14.37a136.53,136.53,0,0,1,4,80.3c-1.25,4.84-2.85,9.77-6.13,13.53-9.52,10.92-31.36,10.83-45.63,8.34-103-18-182-14-272-17a54.32,54.32,0,0,1-18-3c-3.33-1.11-9-4-13-6C337.4,412.23,330.4,408.23,331.4,405.23Z"/><path class="cls-1" d="M781.58,319c23.82-9.75,35.79-3.13,60.82,4.25,13.25,3.9,64.29,25.59,77,31,87,37,100,49.77,171,80,8.94,3.8,36.1,5.69,46,9,9,3,17,19,8,24-16.81,9.34-37,12-61,15-77.89,9.73-70.5,9.88-149,11-9.22.13-42,1-62,0-12.34-.62-37-11-52-30-19.61-24.85-39.58-54.57-49.22-84.72-3.59-11.22-6.78-22.51-6.78-34.28,0-14,3-16,10-21A54.19,54.19,0,0,1,781.58,319Z"/><path class="cls-1" d="M911.64,170.39c16.36,3.21,14.27,1.86,30.2,6.8,17.63,5.48,37.14,14.2,42.5,31.88,1.92,6.33,1.75,13.22,4.2,19.37,3.45,8.66,21.53,21,29.44,26,44.18,27.52,79.55,31.46,127.46,55,17.33,8.5,39.06,28.56,51.46,43.35,16.26,19.37,20.2,38.06,23.3,65.77.39,3.48.76,16.59-1.59,19.19-3.21,3.54-8.21,2.54-18.21-.46-5.58-1.68-8.6-17.26-12.13-25.72-13.52-32.45-37.38-69.88-67.31-88.46-32.92-20.44-72.06-32.56-110.81-33.17-7.92-.12-16.1.05-23.43-3-4.79-2-8.94-5.18-13-8.36-34.47-26.85-54.7-41.95-89.17-68.8-2.49-1.94-13.33-11.13-15.67-13.25-7.33-6.65-12.67-13.39-.07-22,8-5.47,14.14-7.51,23.72-6.17Z"/><path class="cls-2" d="M1041,299.14a335.27,335.27,0,0,1,34.51,9c12.89,4.06,38.63,18.08,57.21,36,13,12.54,26.86,28.56,34.45,45,6.46,13.94,25.42,42.64,22.71,47.8-3,5.67-55.48-6.7-64.86-18.08-8.56-10.37-8.9-23.44-22.55-34.69-46.07-37.93-51.07-42.93-96.18-77.42-1.24-.95-10.07-8.31-10.09-9.93-.05-3,9.26-1,21.62-.43C1021.81,296.55,1037.08,298.39,1041,299.14Z"/><path class="cls-6" d="M224.23,228.7c-2.26-3.83-4.63-7.79-8.28-10.34-3.08-2.16-7-5.05-10.6-6.09-12.08-3.48-16.2-7.4-28.92-3.73-2.43.7-6.88,3.27-9,4.64-11.57,7.47-24.06,23.33-35.11,39.26-7.44,10.73-14.72,22.48-21.36,33.72-6.82,11.54-10.07,24.8-15.54,37-4.54,10.18-10.58,19.6-16.6,29-16.82,26.19-39.4,60.4-56.22,86.58,8-.16,21.8-8.34,29.83-8.5a10.78,10.78,0,0,0,4.85-.85,11,11,0,0,0,3.73-4Q73.36,406.17,85.74,387c3.66-5.68,7.46-11.48,12-16.43,3-13.61,14.38-24.47,27-30.82,13.54-6.83,28.7-9.63,43.18-14.17a185,185,0,0,0,74-44.46c2.81-2.77,5.83-5.77,9.68-6.43-2.51-5.39-6.74-10.92-9.11-14.95Z"/><path class="cls-4" d="M224.88,228.32a54.56,54.56,0,0,0-4.36-6.6,25.51,25.51,0,0,0-5.46-4.91,46.43,46.43,0,0,0-7-4.28,77.17,77.17,0,0,0-7.51-2.56c-4.13-1.4-8.23-3.08-12.61-3.53a28,28,0,0,0-13.68,2.11c-8.84,3.87-16.1,10.52-22.52,17.58a256.37,256.37,0,0,0-22,28.64c-6.91,10.15-13.42,20.6-19.62,31.2-5.81,9.93-9,21-13.25,31.67-4.48,11.28-10.75,21.61-17.28,31.8q-8.61,13.44-17.34,26.82C50.19,394.89,38,413.48,25.94,432.16q-2,3.09-4,6.2a.76.76,0,0,0,.65,1.13A34.12,34.12,0,0,0,32.85,437c3.85-1.38,7.62-3,11.49-4.26a43.07,43.07,0,0,1,5.34-1.47c1.8-.34,3.62-.22,5.43-.49a7.88,7.88,0,0,0,5.29-3.27c1.64-2.15,3-4.54,4.47-6.82Q74.16,406.35,83.43,392c2.91-4.51,5.76-9.07,8.9-13.44,1.59-2.22,3.26-4.37,5.06-6.42a7.37,7.37,0,0,0,1-1.15,5.39,5.39,0,0,0,.33-1.27c.28-1.08.61-2.14,1-3.19,6.69-18.45,25.9-27.71,43.4-33.05,9.9-3,20-5.34,29.8-8.72A185.55,185.55,0,0,0,224,297.56q5.72-4.31,11.08-9c3.63-3.19,6.93-6.77,10.6-9.89a13.55,13.55,0,0,1,6.15-3.23.76.76,0,0,0,.45-1.1,88.56,88.56,0,0,0-6.48-10.83c-2.31-3.48-4.4-7.11-6.52-10.71q-7.22-12.22-14.41-24.45a.75.75,0,0,0-1.3.76q7.21,12.22,14.41,24.45c2.13,3.6,4.21,7.22,6.52,10.71A88.56,88.56,0,0,1,251,275.07l.45-1.1c-4.53.87-7.75,4.42-10.91,7.5q-5.22,5.05-10.82,9.69a184.59,184.59,0,0,1-50.47,29.65c-9.49,3.69-19.28,6.31-29.07,9-17.91,5-36.8,11.64-47.6,27.83a37.64,37.64,0,0,0-5.27,11.61,7,7,0,0,1-1.85,2.78c-.82,1-1.62,2-2.39,3-1.62,2.1-3.14,4.27-4.62,6.47-6.25,9.31-12.2,18.83-18.28,28.25l-9.27,14.38c-1.43,2.21-2.79,4.57-5.57,5.13-1.89.39-3.85.2-5.76.54-7.69,1.39-14.66,5.41-22.18,7.4a21,21,0,0,1-4.79.79l.65,1.13C34.87,421,46.66,403,58.41,385q8.72-13.35,17.37-26.74C82,348.69,88.31,339.18,93.46,329s8.34-21,12.71-31.47a119.31,119.31,0,0,1,8.07-15.45q4.67-7.78,9.54-15.45c6.52-10.21,13.38-20.25,20.89-29.77,6.48-8.2,13.55-16.57,22.27-22.49a36.7,36.7,0,0,1,12-5.73,26.63,26.63,0,0,1,13.56.18c2.11.59,4.17,1.35,6.24,2.07,2.49.87,5.07,1.52,7.52,2.45a33.72,33.72,0,0,1,7.06,4,27.73,27.73,0,0,1,5.91,5.05,51.87,51.87,0,0,1,4.37,6.62A.75.75,0,0,0,224.88,228.32Z"/><path class="cls-2" d="M97.33,370.6c7-6.68,29.07-14.53,38.52-16.69,38.45-8.78,77.53-29,108.29-53.64,4.66-3.73,7.61-9.94,9.22-15.68.82-2.94-.08-6.39-1.72-9.9-3.85.66-6.87,3.66-9.68,6.43-20.71,20.39-36.54,27.79-64.27,36.48-14.48,4.54-33.77,5-47.31,11.82-12.61,6.35-48.54,20.78-62,38.45L15.87,449.73l48.48-28.12S91.18,376.45,97.33,370.6Z"/><path class="cls-4" d="M97.86,371.13c3.32-3.12,7.67-5.22,11.76-7.13A152.93,152.93,0,0,1,125,357.89c4.47-1.52,9-2.74,13.56-3.84,6.73-1.62,13.37-3.56,19.92-5.77a283.43,283.43,0,0,0,75.12-39q4.62-3.33,9.09-6.86a29.21,29.21,0,0,0,7.17-7.62A37.93,37.93,0,0,0,254,285c1-3.65-.22-7.34-1.74-10.66a.77.77,0,0,0-.85-.34c-3.69.71-6.55,3.24-9.16,5.78-2.77,2.7-5.55,5.38-8.46,7.93A125,125,0,0,1,217.38,300c-11.76,7.3-24.78,12.07-37.9,16.24a173.55,173.55,0,0,1-22.54,5.06c-7.64,1.35-15.39,2.72-22.64,5.56-4.61,1.79-9,4.18-13.5,6.27-5.43,2.53-10.84,5.1-16.17,7.82-11.42,5.85-23.12,12.36-32.35,21.41a35.62,35.62,0,0,0-5,5.92l-3,4.66L52.5,391.25,37.18,415.12l-14,21.75-7.64,11.91-.36.57a.76.76,0,0,0,1,1l15.67-9.09,25.67-14.9c2.25-1.3,4.51-2.58,6.74-3.9,1-.61,1.5-1.9,2.1-2.9q7.23-12.07,14.68-24C84,390.92,87,386.28,90,381.7a102.13,102.13,0,0,1,6.73-9.39,15.23,15.23,0,0,1,1.09-1.18c.7-.67-.37-1.73-1.06-1.06a48.81,48.81,0,0,0-5.89,7.67c-2.93,4.26-5.74,8.61-8.51,13q-8.15,12.86-16,25.93l-2,3.43a9.94,9.94,0,0,0-.53.89c-.17.37-.28.15.1,0a44.72,44.72,0,0,0-4.91,2.85L34.27,438.19l-12,6.93-4.2,2.44a19.44,19.44,0,0,0-2.3,1.34c-.1.07-.22.12-.32.18l1,1,5.35-8.34,12.81-19.95L50,398l13.09-20.41c2-3.07,3.84-6.26,5.94-9.26,2.95-4.2,7.22-7.71,11.27-10.8A142.77,142.77,0,0,1,97,346.72c10.08-5.64,20.61-10.35,31-15.33,2.5-1.19,5-2.45,7.55-3.42a84.37,84.37,0,0,1,11-3.14c7.64-1.71,15.42-2.75,23.08-4.4a168.72,168.72,0,0,0,21.64-6.6,158.26,158.26,0,0,0,18.25-7.74c12.3-6.25,23.07-14.8,32.88-24.44,2.69-2.65,5.5-5.5,9.35-6.24l-.85-.34c1.56,3.41,2.45,6.76,1.32,10.42a36.39,36.39,0,0,1-4,8.86,27,27,0,0,1-6.38,6.72q-4.15,3.27-8.42,6.38A292,292,0,0,1,198,329.56a274.26,274.26,0,0,1-38.32,16.71c-6.41,2.21-12.92,4.17-19.5,5.82-4.75,1.19-9.46,2.31-14.11,3.85a154.89,154.89,0,0,0-16.64,6.49c-4.42,2-9.09,4.28-12.67,7.64C96.09,370.73,97.15,371.79,97.86,371.13Z"/><path class="cls-2" d="M256.13,221.55c-1.65-.84-3.34,2.57-2.1,3.95,8.91,9.91,15.94,19.58,27.45,26.3,6.94,4.06,15.49,7,23.31,5.11,15.56-3.74,19.53-6.13,33.73-10.28,10.2-3,26.4-9.35,36.35-13.09,10.9-4.1,26.76-7,38.24-9,20.09-3.5,32.69-2.87,49.74-6.83-42-3.94-84.36,2.54-125,13.65-18.32,5-38.2,12.89-55.8,5.75-9.29-3.76-10.11-7.12-20.95-13.4C261.08,223.67,257.33,222.16,256.13,221.55Z"/><path class="cls-2" d="M373.2,299.52s-110,77.26-219.87,111.5C78,434.49,27.1,460,2.5,473.69l-.86,2.53c-1.08,3-2.23,8.95-1.3,12a27,27,0,0,0,3.82,7.1c2.92,3.08,11.9,4.3,13.9,4.35,19,.48,33.58-10,48.51-19.78a269.55,269.55,0,0,1,47.64-24.81c26.83-10.51,33.49-12.79,52.54-20.68,9.09-3.78,39.35-17.23,48.53-20.79,12.13-4.7,40.7-18.47,56.4-24.93,13.75-5.67,25.48-13.57,37.88-21.79,43.19-28.66,82.22-62.11,118.12-99.51,6.94-7.23,13.79-14.66,21.95-20.47,6.5-4.64,16.34-9.46,23.33-14.16C429.29,252.22,373.2,299.52,373.2,299.52Z"/><path class="cls-2" d="M563.66,106.38c-4.16-3.87-7.82-8.5-12.95-10.93-4.1-1.94-8.76-2.27-13.29-2.56l-27.13-1.77c-1.92-.13-4.09-.17-5.49,1.15s-1.48,3.63-1.33,5.62a72.43,72.43,0,0,0,6.35,24.47c.1-3.45,1-3.43,1-3.43s9.3-11.77,46.94,3.18,40.17,13.51,45.19,12.64c1-.17,6-3.51,7.13-4.82-5.54-3.18-20.91-6.81-26.45-10C576.61,115.93,569.55,111.87,563.66,106.38Z"/><path class="cls-4" d="M564.19,105.85c-4.31-4-8.15-8.91-13.7-11.31-6-2.61-13.06-2.4-19.49-2.82-7.14-.47-14.29-1.11-21.44-1.4-2.39-.09-5,.32-6.21,2.67s-.62,5.56-.31,8.12a74.76,74.76,0,0,0,6.13,21.63c.33.72,1.37.3,1.4-.38a8.85,8.85,0,0,1,.49-2.75s-.44.22-.17,0,.29-.11.43-.2,0,0,0,0c.2-.15.38-.38.57-.55a13.56,13.56,0,0,1,3.75-2.07c7.32-2.7,15.84-1.54,23.23.11A146.3,146.3,0,0,1,560.47,124c6.28,2.47,12.58,4.89,18.94,7.11,5.79,2,11.93,4.38,18.11,4.84a17,17,0,0,0,4-.19c.53-.08,1.08-.15,1.6-.28,1.9-.49,3.74-2,5.29-3.17a14.38,14.38,0,0,0,2.2-1.85.77.77,0,0,0-.15-1.18c-5-2.83-10.93-4.24-16.36-6a82.33,82.33,0,0,1-8.38-3.08,90.1,90.1,0,0,1-9.45-5.41,77.78,77.78,0,0,1-12-8.9c-.71-.66-1.78.4-1.06,1.06a75.45,75.45,0,0,0,10.08,7.7c3.45,2.23,7,4.45,10.66,6.33,5.37,2.77,11.45,4.25,17.15,6.17a49.41,49.41,0,0,1,8.65,3.46l-.15-1.17a22.42,22.42,0,0,1-5.65,4.09,6.58,6.58,0,0,1-2.27.74,15.91,15.91,0,0,1-3.59.25,32.45,32.45,0,0,1-6.25-1.08c-3.85-1-7.64-2.23-11.39-3.54-6.41-2.22-12.75-4.66-19.06-7.14a151,151,0,0,0-21.84-7.22c-7.61-1.71-16.34-2.91-23.9-.25a15.1,15.1,0,0,0-4.47,2.36c-.2.17-.64.43-.75.69s.2-.36.44-.12c-.27-.27-1,.59-1.06.74a7.35,7.35,0,0,0-.66,3.44l1.4-.38A72.78,72.78,0,0,1,505,104.11c-.47-2.78-1.09-5.9-.77-8.74.38-3.36,3.26-3.68,6.08-3.5,6.58.39,13.15.86,19.73,1.29,3.2.2,6.4.39,9.6.63a35.22,35.22,0,0,1,8.87,1.57c6.07,2.09,10.11,7.3,14.64,11.55C563.83,107.57,564.89,106.51,564.19,105.85Z"/><path class="cls-1" d="M870.61,250c-33.65-34.35-76.76-90-90.64-114.81,0,0,4.52,2.55,4.56,2.53-.6-.32-1.19-.64-1.77-1a18.67,18.67,0,0,1-6.82-6c-1.59-2.62-2.06-6.11-.49-8.75,1.37-2.32,4-3.58,6.42-4.68a424,424,0,0,1,51-19.07c1.24-1.34,5.93-1.11,7.16-2.52.94-1.06,1.48-6.89,2.25-9.94C829.85,78.1,814.57,71.63,802.18,64c-8.81-5.45-19-11.12-29-8.18-6.86,2-11.87,7.74-17.48,12.18a54.4,54.4,0,0,1-8.25,5.35l-6.08,4.9c-21.45,17.46-65.65,44.86-87.94,56.3s-18.83,32.54-18.83,32.54l.15,34c.29,28,7.42,34.2,17,38.44,17.62,7.78,40.36,26,66,39.68s33.85,8.78,44.86,6.13c23.43-5.64,64.18-6.39,96.19-6.58S870.61,250,870.61,250Z"/><path class="cls-5" d="M659.45,40.13c13.84-3.3,22.45-5.55,35.38.4,11.09,5.11,30.75,13.51,42,21.57.48-2.4-4.79-7.41-6.07-9.63-3.16-5.48-8.5-9.32-13.79-12.79-9.05-5.93-31.05-17.26-41.61-19.64C665.39,17.78,649,26,629,34.87c-38.44,17-61.49,18.46-76.84,32.08-2.11,1.88-4.2,7.9-4.25,9.89-.1,4,4.16,7.07,7.74,8.89,1.36.7,2.69,1.43,4,2.19C584.06,70.36,612.24,58.58,640.09,47,646.41,44.36,652.78,41.72,659.45,40.13Z"/><path class="cls-4" d="M659.64,40.85c5.63-1.34,11.31-2.85,17.11-3.2a36.08,36.08,0,0,1,16.43,3c9.49,4.05,18.92,8.45,28.09,13.18a121.91,121.91,0,0,1,15.15,8.94.75.75,0,0,0,1.1-.45,5.53,5.53,0,0,0-1.2-3.72,46.55,46.55,0,0,0-3.23-4.18C732,53,731.09,51.48,730,50a31,31,0,0,0-4.87-5.24c-5.81-5.06-12.73-8.91-19.5-12.53a200.69,200.69,0,0,0-22-10.31,47.39,47.39,0,0,0-8.83-2.78,25.17,25.17,0,0,0-9.39.47c-8.92,1.86-17.42,5.89-25.7,9.58-10.09,4.5-20.14,9-30.5,12.84-8.17,3-16.45,5.72-24.73,8.46a182,182,0,0,0-19.07,7.12,64.37,64.37,0,0,0-7.72,4.15c-2.32,1.48-5.06,3.17-6.8,5.33a19.2,19.2,0,0,0-3.78,9.2c-.46,3.87,2.82,6.87,5.78,8.77,2,1.28,4.22,2.29,6.29,3.48a.74.74,0,0,0,.76,0c23.43-16.79,50.06-28.25,76.53-39.29,7.57-3.15,15.13-6.49,23.12-8.43a.75.75,0,0,0-.39-1.44c-7.27,1.76-14.15,4.69-21,7.56-6.61,2.75-13.23,5.52-19.8,8.37a403.29,403.29,0,0,0-38.64,18.87,229.14,229.14,0,0,0-20.54,13.07H560c-3.65-2.1-8.51-3.8-10.66-7.7-1.68-3,.19-7.1,1.69-9.86,1.37-2.51,3.84-4.18,6.16-5.76a58,58,0,0,1,7.17-4.14,142.39,142.39,0,0,1,17.87-7c7.48-2.51,15-4.9,22.45-7.55,9.58-3.41,19-7.25,28.26-11.41,8.78-3.92,17.52-8.14,26.68-11.12a43.56,43.56,0,0,1,10.5-2.32,21.79,21.79,0,0,1,8.28,1.19,139.54,139.54,0,0,1,20.33,8.7,176.08,176.08,0,0,1,18.19,10.19c3.9,2.58,7.78,5.34,10.81,8.94C729,51,729.84,52.66,731,54.18c1,1.32,2.14,2.57,3.15,3.91.68.93,2.1,2.54,1.91,3.81l1.1-.45c-8.92-6.38-19.07-11.07-29-15.65-4.53-2.09-9.06-4.18-13.61-6.2a38.08,38.08,0,0,0-16.19-3.52c-6.49.12-12.86,1.83-19.13,3.33C658.31,39.63,658.7,41.08,659.64,40.85Z"/><path class="cls-6" d="M373.2,299.52s56.09-47.3,99.76-66.8c4.47-3,7.78-6,8.27-8.84,2.87-16.43-34.6-4.06-48.76,4.75-6,3.71-10.71,9-15.58,14.1-23.83,24.7-52.49,44.21-81.75,62.16a1109.17,1109.17,0,0,1-126.5,66.77l1-.38-1,.38-1.41.63,1.41-.63q-73.53,27.91-149.22,49.68c-13.18,3.79-26.95,7.74-37,17.11-8,7.44-12.73,17.58-17.32,27.46L2.5,473.69C27.1,460,78,434.49,153.33,411,263.23,376.78,373.2,299.52,373.2,299.52Z"/><path class="cls-4" d="M2.5,474.44a.78.78,0,0,1-.48-.17.75.75,0,0,1-.23-.82l2.64-7.79C8.82,456.2,13.77,445.55,22,437.9c10.13-9.47,23.89-13.43,37.2-17.26C109.34,406.21,159.52,389.5,208.36,371a1111.92,1111.92,0,0,0,126.39-66.71c26.35-16.17,56.66-36.18,81.6-62.05l1.82-1.9c4.23-4.43,8.6-9,13.9-12.3,11.42-7.11,38.74-17,47.36-11.16,2.25,1.52,3.11,3.93,2.54,7.17-.48,2.73-3.21,5.7-8.59,9.33l-.12.06c-43.07,19.24-99,66.22-99.57,66.69l-.05,0c-1.1.78-111.34,77.72-220.09,111.61C77.78,435.35,26.62,461.1,2.86,474.35A.77.77,0,0,1,2.5,474.44ZM207.12,373c-48.32,18.29-97.93,34.78-147.49,49C46.42,425.86,32.84,429.77,23,439,15,446.45,10.13,457,5.82,466.22l-2,5.88c24.5-13.53,75.13-38.69,149.28-61.8,107.94-33.63,217.4-109.81,219.64-111.38,1.47-1.23,56.95-47.68,99.84-66.86,4.92-3.33,7.51-6,7.9-8.31.46-2.64-.16-4.49-1.9-5.67-3.43-2.31-11-2-21.39.94-8.73,2.46-18.28,6.48-24.34,10.25-5.13,3.19-9.44,7.71-13.61,12.07l-1.82,1.91c-25.06,26-55.46,46.06-81.9,62.28a1112.28,1112.28,0,0,1-125.31,66.24.81.81,0,0,1-.3.21l-1.61.65-.77.35A.77.77,0,0,1,207.12,373Z"/><path class="cls-2" d="M775.53,122.09a8.83,8.83,0,0,0-.22,9c1.66,2.62,2.12,4.06,4.88,5.61.61.34,1.22.66,1.84,1,13.11-8.11,35-17.07,50-26.16,6.34-3.84,12.07-7.94,15-14.63,2.12-4.95-3.4-19.09-6.45-22.17,1.58,20.05-39.63,33-57.54,41.56C780.46,117.47,777,119.77,775.53,122.09Z"/><path class="cls-6" d="M500.05,111.14a151.66,151.66,0,0,0,10.75,27.29c3.88,5.1,9.95,2.25,8.1-3.8-1.46-4.78-5.6-16.36-5.54-18.14-.93-3-2.78-9.07-2.65-14.07.1-4,.2-8,4.25-9.9,3.26-1.53,8.1-.87,10-.75,9,.59,3.39.53,12.44,1.12,4.53.29,9.19.62,13.29,2.56,5.13,2.43,8.79,7.06,12.95,10.93,5.89,5.49,13,9.55,19.94,13.56,5.54,3.18,10.91,6.55,16.45,9.74,7,2.9,14,1.35,8.45-4.82-19-12-34.51-30.55-55.15-40.23a6.94,6.94,0,0,1-4-5c-.41-2.43,1-3.42,2.32-4.35,26.83-18.69,53.53-30.38,85.25-40.16,16.94-5.21,34-14.68,51-9.75,10.4,3,19.93,8.43,29,14.36,5.29,3.47,10.63,7.31,13.79,12.79a18.35,18.35,0,0,1,2.42,8.43c.43-.47.84-.92,1.21-1.37l13.11,13.79A54.4,54.4,0,0,0,755.72,68c5.61-4.44,10.62-10.15,17.48-12.18,9.94-2.94,20.17,2.73,29,8.18l37.16,23c.71-2.79,1.15-5.58.9-6.85-.61-3.18-3.35-5.46-5.92-7.42A408,408,0,0,0,697.77,4.61C689.15,2.19,680.06.05,671.34,2c-5.75,1.31-10.92,4.34-16.09,7.17A310.92,310.92,0,0,1,531.84,46.45c-18.3,1.53-36.7,1.43-55,2.49A439,439,0,0,0,310.93,92.13S267.34,109,277,122.05a4.4,4.4,0,0,0,4.81,1.51,259.37,259.37,0,0,0,38-14.82c24-11.61,46.33-27,71.81-34.76,10.92-3.34,22.24-5.23,33.54-6.89,11.13-1.64,22.37-3.09,33.59-2.3s22.53,4,31.48,10.77a22.85,22.85,0,0,1,6.52,7.12c3.67,6.88,1.58,15.27,2.36,23a34.38,34.38,0,0,0,1,5.43"/><path class="cls-6" d="M344.87,173.27c1-1,4.15-5.9,2.28-11a153.41,153.41,0,0,0-9.47-21.24,17.77,17.77,0,0,0-3-3.7c-1.25-1.06-3.06-1-4.68-.89a44.27,44.27,0,0,0-10.53,2.38c-3.06,1.1-6.22,2.57-9.42,2-5.72-1-10.2-5.43-14.35-9.51-8.49-8.37-8.77-8.34-11.53-6.51-8.12,5.37-15.82,11.35-23.73,17a8.51,8.51,0,0,0-3.1,3.18,8.61,8.61,0,0,0-.33,4.2l.94,10.47a15.39,15.39,0,0,0,1,4.87,17.8,17.8,0,0,0,3.16,4.16c4.26,5,19.89,25.33,21.59,27.62,2.1,2.84,5.08,5.35,8.6,5.6a14.83,14.83,0,0,0,6.16-1.25c9.59-3.59,16.9-6.19,26.07-13C324.5,187.76,339.6,178.28,344.87,173.27Z"/><path class="cls-4" d="M345.4,173.8a11.9,11.9,0,0,0,2.47-11.68,136.29,136.29,0,0,0-6-14.52,73.1,73.1,0,0,0-3.75-7.32c-1-1.55-2.38-3.5-4.13-4.2-2.33-.92-5.26-.25-7.63.18a50.81,50.81,0,0,0-8.72,2.51c-2.94,1.1-5.76,1.93-8.87,1a21,21,0,0,1-7.17-4c-3.88-3.16-7.15-7-10.91-10.26-1.37-1.19-3.16-2.85-5.13-2.23A12.53,12.53,0,0,0,282.6,125c-2.65,1.78-5.25,3.62-7.84,5.49q-7.61,5.49-15.15,11.06c-1.95,1.44-3.32,3-3.43,5.56-.14,3,.46,6.24.73,9.28.25,2.8.18,6,1.36,8.58.85,1.88,2.43,3.29,3.73,4.85,1.89,2.29,3.73,4.62,5.56,7q6.66,8.44,13.19,17a43.55,43.55,0,0,0,4.67,5.71,11.72,11.72,0,0,0,6.28,3.19c2.83.38,5.53-.7,8.13-1.67a143.51,143.51,0,0,0,14.11-5.85,119.35,119.35,0,0,0,11.32-7c5.59-3.62,11.2-7.23,16.47-11.3,1.26-1,2.51-2,3.67-3.07.71-.67-.35-1.73-1.06-1.06-5,4.74-11.14,8.5-16.93,12.26-1.82,1.18-3.6,2.38-5.39,3.61A76.13,76.13,0,0,1,308.59,196c-2.25,1-4.53,1.84-6.81,2.7-2.61,1-5.35,2.32-8.16,2.55-4.29.34-7.41-2.73-9.81-5.9-3.47-4.59-7-9.13-10.54-13.66-3.79-4.87-7.48-9.9-11.6-14.5a10.1,10.1,0,0,1-2.27-3.4,19.14,19.14,0,0,1-.74-4.52l-.78-8.8a15.88,15.88,0,0,1-.12-4.07,5.5,5.5,0,0,1,2.46-3.41c2.36-1.78,4.8-3.48,7.18-5.24,4.76-3.5,9.5-7,14.38-10.35a25.11,25.11,0,0,1,4-2.59,1.68,1.68,0,0,1,1.45,0,11.9,11.9,0,0,1,2.9,2.19c1.76,1.58,3.43,3.25,5.1,4.9,3.38,3.33,6.88,6.82,11.32,8.68a12.33,12.33,0,0,0,7.23,1c2.67-.49,5.15-1.72,7.73-2.52a40.07,40.07,0,0,1,8.93-1.79,5.58,5.58,0,0,1,3.62.59,10.58,10.58,0,0,1,2.12,2.31,38.91,38.91,0,0,1,3.52,6.43q1.62,3.26,3.06,6.59c1,2.39,2,4.8,2.91,7.23,1,2.73,1.78,5.17,1,8.08a10.06,10.06,0,0,1-2.25,4.3A.75.75,0,0,0,345.4,173.8Z"/><path class="cls-6" d="M500.05,111.14a151.66,151.66,0,0,0,10.75,27.29c3.88,5.1,9.95,2.25,8.1-3.8-1.46-4.78-5.6-16.36-5.54-18.14-.93-3-2.78-9.07-2.65-14.07.1-4,.2-8,4.25-9.9,3.26-1.53,8.1-.87,10-.75,9,.59,3.39.53,12.44,1.12,4.53.29,9.19.62,13.29,2.56,5.13,2.43,8.79,7.06,12.95,10.93,5.89,5.49,13,9.55,19.94,13.56,5.54,3.18,10.91,6.55,16.45,9.74,7,2.9,14,1.35,8.45-4.82-19-12-34.51-30.55-55.15-40.23a6.94,6.94,0,0,1-4-5c-.41-2.43,1-3.42,2.32-4.35,26.83-18.69,53.53-30.38,85.25-40.16,16.94-5.21,34-14.68,51-9.75,10.4,3,19.93,8.43,29,14.36,5.29,3.47,10.63,7.31,13.79,12.79,1.46,2.53,3.14,6.55,6.07,9.63,0,0,9.92,8,18.92,5.87,7-1.68,10.62-10.15,17.48-12.18,9.94-2.94,20.21,1.83,28.58,7.94,12.76,9.33,26.2,26.4,33.43,22.85,2.58-1.27,5.28-5.21,5-6.48-.61-3.18-3.35-5.46-5.92-7.42A408,408,0,0,0,697.77,4.61C689.15,2.19,680.06.05,671.34,2c-5.75,1.31-10.92,4.34-16.09,7.17A310.92,310.92,0,0,1,531.84,46.45c-18.3,1.53-36.7,1.43-55,2.49A439,439,0,0,0,310.93,92.13S267.34,109,277,122.05a4.4,4.4,0,0,0,4.81,1.51,259.37,259.37,0,0,0,38-14.82c24-11.61,46.33-27,71.81-34.76,10.92-3.34,22.24-5.23,33.54-6.89,11.13-1.64,22.37-3.09,33.59-2.3s22.53,4,31.48,10.77a22.85,22.85,0,0,1,6.52,7.12c3.67,6.88,1.58,15.27,2.36,23a34.38,34.38,0,0,0,1,5.43"/><path class="cls-4" d="M515.36,141.81a6.57,6.57,0,0,1-5.15-2.92l-.07-.11a151.25,151.25,0,0,1-10.81-27.45h0a34,34,0,0,1-1-5.55,65.93,65.93,0,0,1-.14-8c.11-5.33.23-10.37-2.13-14.79a21.59,21.59,0,0,0-6.31-6.88c-8-6.08-18.75-9.75-31.08-10.62-11.18-.79-22.65.7-33.43,2.29-10.26,1.51-22.16,3.42-33.43,6.86C374.86,79.87,359,88.56,343.71,97c-7.68,4.22-15.63,8.58-23.64,12.46A260.66,260.66,0,0,1,282,124.28a5.15,5.15,0,0,1-5.64-1.78,7.28,7.28,0,0,1-1.21-6.63c3.46-11.92,34.19-23.94,35.5-24.44a442.25,442.25,0,0,1,166.1-43.24c7.62-.44,15.36-.68,22.85-.92,10.56-.33,21.47-.67,32.17-1.57A311.4,311.4,0,0,0,654.89,8.56l1.25-.69c4.74-2.62,9.65-5.33,15-6.56,9-2,18.16.15,26.8,2.58a411.42,411.42,0,0,1,136.8,68.19c2.78,2.12,5.55,4.47,6.21,7.88.35,1.81-2.75,6-5.44,7.29-5.36,2.63-13-4.36-21.92-12.46a155.82,155.82,0,0,0-12.29-10.45c-10.4-7.6-19.79-10.23-27.92-7.83-3.17.94-5.62,3.33-8.21,5.86s-5.55,5.42-9.31,6.33c-9.24,2.23-19.15-5.68-19.57-6a33.69,33.69,0,0,1-5.15-7.8c-.38-.74-.74-1.43-1.09-2-3.13-5.43-8.41-9.17-13.55-12.54-7.55-5-17.65-11-28.77-14.27-12.94-3.75-26.21,1.09-39,5.76-3.78,1.38-7.7,2.8-11.55,4-34.62,10.67-60,22.65-85,40.05-1.26.88-2.35,1.64-2,3.61a6.16,6.16,0,0,0,3.55,4.5c12,5.65,22.45,14.4,32.52,22.87,7.25,6.09,14.74,12.4,22.72,17.41a.65.65,0,0,1,.16.13c2.7,3,2.41,4.85,1.68,5.87-1.47,2.08-6.19,2.14-11,.14-2.86-1.64-5.63-3.31-8.32-4.92s-5.45-3.27-8.22-4.86c-6.92-4-14.09-8.09-20.08-13.67-1.06-1-2.11-2-3.12-3.07-2.91-2.93-5.92-6-9.63-7.72-4-1.91-8.81-2.22-13-2.49-4.56-.3-5.44-.44-6.29-.57s-1.66-.25-6.15-.55l-.84-.06c-2.14-.18-6.13-.52-8.81.74-3.63,1.7-3.72,5.36-3.82,9.24-.12,4.87,1.72,10.92,2.61,13.83a.64.64,0,0,1,0,.24c0,1.1,2.06,7.41,3.59,12,.75,2.26,1.47,4.4,1.92,5.88.93,3.05.08,5.77-2.17,6.92A4.6,4.6,0,0,1,515.36,141.81ZM511.44,138c1.79,2.32,4,2.66,5.33,2,1.57-.8,2.12-2.82,1.41-5.14-.44-1.46-1.15-3.59-1.9-5.85-2.17-6.52-3.61-11-3.67-12.39-.93-3-2.78-9.15-2.65-14.21.1-4,.21-8.46,4.68-10.56,3.05-1.43,7.3-1.07,9.58-.88L525,91a62.76,62.76,0,0,1,6.28.56,61.27,61.27,0,0,0,6.16.55c4.34.28,9.27.61,13.56,2.63,4,1.87,7.05,5,10.05,8,1,1,2,2,3.09,3,5.86,5.46,13,9.53,19.8,13.46,2.78,1.6,5.56,3.26,8.24,4.88s5.45,3.27,8.21,4.85c4.28,1.78,8.19,1.63,9.1.34.56-.78,0-2.21-1.51-3.92-8-5-15.54-11.37-22.8-17.48-10-8.4-20.32-17.09-32.18-22.65a7.67,7.67,0,0,1-4.4-5.61c-.49-2.91,1.31-4.17,2.63-5.09,25.13-17.5,50.69-29.54,85.46-40.25,3.82-1.18,7.71-2.6,11.48-4,13.06-4.76,26.56-9.68,40-5.79,11.32,3.27,21.54,9.44,29.18,14.45,5.06,3.32,10.73,7.34,14,13.05.35.62.73,1.32,1.12,2.08a32.21,32.21,0,0,0,4.84,7.4s9.68,7.71,18.2,5.66c3.36-.81,5.91-3.3,8.61-5.94s5.3-5.18,8.84-6.23c8.59-2.54,18.43.17,29.23,8.06a155.87,155.87,0,0,1,12.41,10.55c8.13,7.41,15.81,14.4,20.25,12.23,2.44-1.2,4.77-4.91,4.63-5.67-.56-2.89-3.1-5-5.65-7A410.09,410.09,0,0,0,697.57,5.33C689.11,3,680.13.8,671.5,2.77c-5.17,1.19-10,3.84-14.63,6.41l-1.25.69A313,313,0,0,1,531.9,47.2c-10.73.9-21.67,1.24-32.25,1.57-7.47.24-15.21.48-22.8.92A440.66,440.66,0,0,0,311.26,92.8c-.37.15-31.4,12.28-34.66,23.49a5.75,5.75,0,0,0,1,5.32,3.64,3.64,0,0,0,4,1.23,260.79,260.79,0,0,0,37.84-14.77c8-3.86,15.9-8.21,23.57-12.42,15.38-8.44,31.29-17.17,48.35-22.39,11.37-3.48,23.33-5.39,33.65-6.92,10.87-1.6,22.42-3.1,33.76-2.3,12.62.9,23.64,4.67,31.88,10.93a22.92,22.92,0,0,1,6.72,7.36c2.54,4.77,2.42,10.24,2.31,15.54a64.7,64.7,0,0,0,.13,7.76,33.39,33.39,0,0,0,1,5.32h0A150.21,150.21,0,0,0,511.44,138Z"/><path class="cls-1" d="M168.33,224.54,137.8,263.6s-7,7.81-.33,8.61c2.36.29,2.34-.2,14.21-5.2,11.4-4.79,24.86-10.81,33.71-16.72,5.08-3.39,7.88-4.68,11.33-13.23,3.2-7.92-5.62-15.15-5.62-15.15s-11.3-9.38-19.62-1.08Z"/><path class="cls-1" d="M284,136.72c-4.17,2.13-4.75,3.85-8.48,6.79a6.47,6.47,0,0,0,.74,7c6,6.85,7.47,8.82,14.75,14a12.74,12.74,0,0,0,4,2.13,13.87,13.87,0,0,0,4.41.26,55.12,55.12,0,0,0,6.27-.57c8-1.33,15.08-6,21.79-10.92a1.93,1.93,0,0,0,.81-.91,2.11,2.11,0,0,0-.05-1.14,45.76,45.76,0,0,0-1.85-6,3.27,3.27,0,0,0-.94-1.51,2.59,2.59,0,0,0-1.89-.31c-6.43.82-11.71,7.37-18.16,6.83-3.67-.32-6.82-2.94-9.26-5.92s-4-4.86-6.62-7.64C289.52,138.86,285.9,135.77,284,136.72Z"/><path class="cls-1" d="M793.7,576c-9.22,1.75-14.11,11.92-22.08,16.88-3.71,2.3-8.06,3.45-11.64,6S753.66,606,755.42,610c2.15,4.89,8.85,5.17,14.18,4.86,18.73-1.11,37.52-.12,56.19,1.71,11.17,1.09,22.36,2.49,33.57,1.93,2.59-.13,5.32-.41,7.44-1.9s3.35-4.58,2-6.77a7.09,7.09,0,0,0-3.32-2.43c-11.26-4.93-24.63-3.75-35.46-9.57-6.36-3.41-11.26-9-16.78-13.61s-12.34-8.64-19.52-7.89"/></g></g></svg>